<?xml version="1.0" encoding="utf-8"?>
<svg width="1600px" height="900px" viewBox="6623 3668 39299 22182" xmlns="http://www.w3.org/2000/svg">
  <title>Export to SVG</title>
  <desc>Generated by CADtoSVG Version 1.0: 15/04/2017 22:02:37</desc>
  <line x1="18634.982" y1="11439.562" x2="28903.645" y2="17329.404" style="stroke: rgb(192, 192, 192); fill: none; stroke-width: 31;"/>
  <line x1="28903.645" y1="17329.404" x2="33836.559" y2="9307.058" style="stroke: rgb(192, 192, 192); fill: none; stroke-width: 31;"/>
  <line x1="33836.559" y1="9307.058" x2="32921.559" y2="8539.566" style="stroke: rgb(192, 192, 192); fill: none; stroke-width: 31;"/>
  <line x1="32921.559" y1="8539.566" x2="45989.129" y2="5095.214" style="stroke: rgb(192, 192, 192); fill: none; stroke-width: 31;"/>
  <line x1="32921.559" y1="8539.566" x2="18634.982" y2="11439.562" style="stroke: rgb(192, 192, 192); fill: none; stroke-width: 31;"/>
  <line x1="18634.982" y1="11439.562" x2="6579" y2="11439.562" style="stroke: rgb(192, 192, 192); fill: none; stroke-width: 31;"/>
  <line x1="28903.645" y1="17329.404" x2="37435.156" y2="25868.402" style="stroke: rgb(192, 192, 192); fill: none; stroke-width: 31;"/>
  <line x1="31694.32" y1="20122.324" x2="38617.469" y2="8637.655" style="stroke: rgb(192, 192, 192); fill: none; stroke-width: 31;"/>
  <line x1="28971.783" y1="17350.369" x2="33908.438" y2="9300.319" style="stroke: rgb(192, 192, 192); fill: none; stroke-width: 31;"/>
  <line x1="33836.559" y1="9307.058" x2="45989.129" y2="6778.454" style="stroke: rgb(192, 192, 192); fill: none; stroke-width: 31;"/>
  <line x1="33894.211" y1="9324.28" x2="45989.129" y2="6939.44" style="stroke: rgb(192, 192, 192); fill: none; stroke-width: 31;"/>
  <line x1="33944.379" y1="9340.753" x2="45989.129" y2="7152.091" style="stroke: rgb(192, 192, 192); fill: none; stroke-width: 31;"/>
  <line x1="34014.766" y1="9399.906" x2="45989.129" y2="7416.408" style="stroke: rgb(192, 192, 192); fill: none; stroke-width: 31;"/>
  <line x1="34014.766" y1="9399.906" x2="31593.984" y2="13292.024" style="stroke: rgb(192, 192, 192); fill: none; stroke-width: 31;"/>
  <line x1="31477.924" y1="13263.57" x2="35352.82" y2="14043.791" style="stroke: rgb(192, 192, 192); fill: none; stroke-width: 31;"/>
  <line x1="31426.26" y1="13348.931" x2="35274.199" y2="14174.078" style="stroke: rgb(192, 192, 192); fill: none; stroke-width: 31;"/>
  <line x1="31453.963" y1="13408.832" x2="35236.012" y2="14238.472" style="stroke: rgb(192, 192, 192); fill: none; stroke-width: 31;"/>
  <line x1="31453.963" y1="13408.832" x2="29022.699" y2="17356.359" style="stroke: rgb(192, 192, 192); fill: none; stroke-width: 31;"/>
  <line x1="29022.699" y1="17356.359" x2="31805.137" y2="19938.127" style="stroke: rgb(192, 192, 192); fill: none; stroke-width: 31;"/>
  <line x1="31825.355" y1="19905.18" x2="31083.32" y2="19224.547" style="stroke: rgb(192, 192, 192); fill: none; stroke-width: 31;"/>
  <line x1="31083.32" y1="19224.547" x2="34197.465" y2="14010.846" style="stroke: rgb(192, 192, 192); fill: none; stroke-width: 31;"/>
  <line x1="34302.293" y1="13831.889" x2="37337.066" y2="8849.559" style="stroke: rgb(192, 192, 192); fill: none; stroke-width: 31;"/>
  <line x1="31495.146" y1="13450.764" x2="29080.355" y2="17362.35" style="stroke: rgb(192, 192, 192); fill: none; stroke-width: 31;"/>
  <line x1="29080.355" y1="17362.35" x2="31109.527" y2="19180.369" style="stroke: rgb(192, 192, 192); fill: none; stroke-width: 31;"/>
  <line x1="29105.814" y1="17385.563" x2="31495.146" y2="13450.764" style="stroke: rgb(192, 192, 192); fill: none; stroke-width: 31;"/>
  <line x1="31495.146" y1="13450.764" x2="34183.238" y2="14034.806" style="stroke: rgb(192, 192, 192); fill: none; stroke-width: 31;"/>
  <line x1="31555.797" y1="13279.295" x2="33973.582" y2="9365.462" style="stroke: rgb(192, 192, 192); fill: none; stroke-width: 31;"/>
  <line x1="33973.582" y1="9365.462" x2="45989.129" y2="7236.703" style="stroke: rgb(192, 192, 192); fill: none; stroke-width: 31;"/>
  <polyline points="25376.18 13160.989 25382.918 13184.201 25393.4 13206.664 25406.879 13226.881 25423.352 13245.601 25442.82 13261.324 25463.785 13275.551 25486.998 13286.034 25511.707 13294.271 25537.166 13299.512 25563.373 13301.01 25590.328 13300.261 25616.535 13295.768 25641.994 13288.28 25665.953 13277.049 25689.166 13264.319 25710.131 13248.596 25728.102 13229.876 25744.574 13209.659 25757.305 13187.944 25767.039 13165.481 25773.777 13141.521 25776.771 13117.561 25776.771 13092.851 25773.027 13068.89 25765.541 13045.678 25755.059 13023.964 25741.58 13003.747 25725.107 12985.027 25706.387 12968.555 25684.674 12955.076 25661.461 12943.845 25637.5 12935.608 25611.293 12931.116 25585.086 12928.869 25558.879 12930.367 25532.672 12934.859 25506.465 12942.348 25482.504 12952.83 25459.293 12966.308 25439.076 12982.032 25420.357 13000.003 25404.633 13020.22 25391.154 13041.934 25381.42 13065.146 25374.682 13089.106 25371.686 13113.067 25372.436 13137.028 25376.18 13160.989 25376.18 13160.989" style="stroke: rgb(192, 192, 192); fill: none; stroke-width: 31;"/>
  <polyline points="28946.324 12265.457 28955.311 12287.921 28967.291 12308.886 28981.518 12328.354 28998.738 12344.827 29017.459 12359.803 29039.174 12371.783 29061.637 12381.517 29085.598 12388.256 29110.307 12391.251 29135.764 12391.251 29160.475 12388.256 29185.184 12382.266 29208.395 12373.28 29230.859 12362.049 29251.076 12347.073 29269.795 12330.601 29285.52 12311.881 29298.996 12290.915 29309.48 12268.452 29316.967 12245.989 29320.711 12222.028 29322.209 12198.067 29319.963 12174.107 29313.973 12150.896 29305.736 12128.432 29293.756 12107.466 29279.529 12088.747 29262.307 12071.525 29242.84 12056.55 29221.873 12044.569 29199.41 12034.835 29175.449 12028.845 29150.74 12025.102 29125.281 12025.102 29100.572 12028.097 29075.863 12034.087 29052.65 12043.072 29030.188 12055.052 29009.971 12069.279 28991.252 12086.501 28975.527 12105.22 28962.049 12125.437 28951.566 12147.9 28944.078 12171.112 28939.586 12194.324 28938.838 12219.033 28941.084 12242.245 28946.324 12265.457 28946.324 12265.457" style="stroke: rgb(192, 192, 192); fill: none; stroke-width: 31;"/>
  <polyline points="29883.039 12884.692 29889.777 12904.16 29898.764 12922.879 29910.744 12939.353 29924.971 12955.076 29941.443 12967.806 29959.414 12979.037 29979.631 12988.022 30000.596 12994.762 30022.311 12998.505 30044.773 12999.254 30067.236 12997.757 30088.951 12993.264 30110.666 12985.776 30130.883 12976.791 30150.352 12964.811 30167.572 12951.333 30182.549 12935.608 30196.025 12917.638 30206.51 12898.919 30213.996 12879.45 30219.238 12859.233 30221.484 12838.268 30219.986 12818.051 30216.242 12797.834 30210.252 12778.366 30200.52 12760.396 30188.539 12743.174 30174.313 12727.45 30157.838 12714.721 30139.867 12703.489 30119.65 12694.504 30098.686 12688.514 30076.971 12684.77 30054.508 12683.272 30032.045 12685.519 30010.33 12689.263 29988.615 12696.75 29968.398 12705.735 29949.68 12717.716 29932.459 12731.942 29916.734 12747.667 29904.006 12764.889 29893.521 12783.607 29885.285 12803.076 29880.793 12823.293 29878.547 12844.258 29879.295 12864.475 29883.039 12884.692 29883.039 12884.692" style="stroke: rgb(192, 192, 192); fill: none; stroke-width: 31;"/>
  <line x1="18634.982" y1="11439.562" x2="9644.474" y2="25868.402" style="stroke: rgb(192, 192, 192); fill: none; stroke-width: 31;"/>
  <line x1="6579" y1="25868.402" x2="6579" y2="3701" style="stroke: rgb(192, 192, 192); fill: none; stroke-width: 31;"/>
  <line x1="6579" y1="3701" x2="45989.129" y2="3701" style="stroke: rgb(192, 192, 192); fill: none; stroke-width: 31;"/>
  <line x1="45989.129" y1="3701" x2="45989.129" y2="25868.402" style="stroke: rgb(192, 192, 192); fill: none; stroke-width: 31;"/>
  <line x1="6579" y1="25868.402" x2="45989.129" y2="25868.402" style="stroke: rgb(192, 192, 192); fill: none; stroke-width: 31;"/>
</svg>