<?xml version="1.0" standalone="no"?>
<!DOCTYPE svg PUBLIC "-//W3C//DTD SVG 20010904//EN"
 "http://www.w3.org/TR/2001/REC-SVG-20010904/DTD/svg10.dtd">
<svg version="1.0" xmlns="http://www.w3.org/2000/svg"
 width="1026.000000pt" height="628.000000pt" viewBox="0 0 1026.000000 628.000000"
 preserveAspectRatio="xMidYMid meet">
<metadata>
Created by potrace 1.14, written by Peter Selinger 2001-2017
</metadata>
<g transform="translate(0.000000,628.000000) scale(0.100000,-0.100000)"
fill="#000000" stroke="none">
<path d="M3958 5697 c-37 -17 -51 -30 -513 -476 -340 -328 -410 -396 -630
-607 -1424 -1366 -1541 -1481 -1566 -1535 l-24 -54 3 -949 c3 -900 4 -951 22
-985 21 -42 51 -71 100 -97 34 -18 145 -19 3845 -19 l3810 0 40 22 c50 27 80
58 100 105 13 33 15 152 15 980 0 638 -4 955 -11 981 -23 85 25 57 -1044 602
-170 87 -364 186 -430 220 -66 34 -255 131 -420 215 -165 84 -372 190 -460
235 -88 45 -281 144 -430 220 -284 145 -585 299 -870 445 -763 392 -1324 678
-1359 692 -47 19 -139 22 -178 5z m897 -842 c138 -70 340 -174 450 -230 110
-56 304 -155 430 -220 127 -65 325 -166 440 -225 116 -59 307 -157 425 -217
118 -61 339 -174 490 -251 151 -78 390 -200 530 -271 140 -72 314 -161 387
-198 l132 -68 -1305 -3 -1305 -2 -462 236 c-254 130 -540 277 -634 326 l-173
89 0 670 0 670 173 -89 c94 -49 285 -147 422 -217z m-1015 -460 l0 -605 -147
-143 c-82 -79 -226 -218 -322 -310 l-174 -167 -633 0 c-349 0 -634 3 -633 8 1
11 1889 1822 1900 1822 5 0 9 -246 9 -605z m744 -1217 c6 -4 -167 -8 -385 -8
l-394 1 140 133 140 133 245 -125 c135 -69 249 -129 254 -134z m-1779 -386
c-193 -185 -737 -706 -950 -912 -72 -69 -147 -141 -168 -159 l-37 -35 0 567 0
567 592 0 593 0 -30 -28z m2773 -118 c158 -81 355 -181 437 -224 83 -43 283
-145 445 -228 162 -83 520 -266 795 -406 275 -141 569 -291 652 -334 84 -42
153 -80 153 -84 0 -5 -1370 -8 -3045 -8 -1681 0 -3045 4 -3045 9 0 4 46 52
103 106 56 55 219 212 362 349 143 138 364 350 490 471 127 120 293 281 370
357 l140 138 928 0 929 0 286 -146z m3162 -500 l0 -645 -327 167 c-181 92
-391 199 -468 239 -77 40 -270 139 -430 220 -159 81 -353 180 -430 220 -77 40
-297 152 -490 250 -192 98 -354 182 -359 186 -6 5 545 9 1247 9 l1257 0 0
-646z"/>
</g>
</svg>
