<svg width="1082" height="794" xmlns="http://www.w3.org/2000/svg">
 <defs>
  <clipPath id="clipId0">
   <path id="svg_1" d="m0,792l1408,0l0,-792l-1408,0l0,792z"/>
  </clipPath>
 </defs>
 <g>
  <title>background</title>
  <rect fill="none" id="canvas_background" height="796" width="1084" y="-1" x="-1"/>
 </g>
 <g>
  <title>Layer 1</title>
  <g id="svg_2" stroke-width="0.1" stroke="rgb(0,0,0)" fill="none" clip-path="url(#clipId0)"/>
  <g id="svg_3" stroke-width="0.25" stroke="rgb(0,0,0)" fill="none" clip-path="url(#clipId0)">
   <polyline stroke-width="0.9" id="svg_4" points="43.498046875,407.66400146484375 82.79716491699219,423.552001953125 "/>
   <polyline stroke-width="0.9" id="svg_5" points="95.21202087402344,428.5710144042969 206.1420135498047,473.4179992675781 "/>
   <polyline stroke-width="0.9" id="svg_6" points="228.3469696044922,482.3949890136719 626.3189697265625,643.2869873046875 "/>
   <polyline stroke-width="0.9" id="svg_7" points="649.4010009765625,652.6190185546875 679.8519897460938,664.9299926757812 "/>
   <polyline stroke-width="0.9" id="svg_8" points="704.7369995117188,674.989990234375 977.4321899414062,785.2349853515625 "/>
   <polyline stroke-width="0.9" id="svg_9" points="43.498046875,407.66400146484375 37.5130615234375,407.8269958496094 "/>
   <polyline stroke-width="0.9" id="svg_10" points="37.5130615234375,407.8269958496094 34.68499755859375,327.7659912109375 "/>
   <polyline stroke-width="0.9" id="svg_11" points="34.50201416015625,322.6029968261719 28.321990966796875,147.6929931640625 "/>
   <polyline stroke-width="0.9" id="svg_12" points="11.125,407.27398681640625 27.489013671875,406.4620056152344 "/>
   <polyline stroke-width="0.9" id="svg_13" points="32.12918281555176,406.23199462890625 35.53204345703125,406.06298828125 "/>
   <polyline stroke-width="0.9" id="svg_14" points="26.2020263671875,148.88099670410156 32.52801513671875,323.2409973144531 "/>
   <polyline stroke-width="0.9" id="svg_15" points="32.74102783203125,329.114013671875 35.53204345703125,406.06298828125 "/>
   <polyline stroke-width="0.9" id="svg_16" points="35.53204345703125,406.06298828125 37.5130615234375,407.8269958496094 "/>
   <polyline stroke-width="0.9" id="svg_17" points="28.321990966796875,147.6929931640625 600.9559936523438,214.6269989013672 "/>
   <polyline stroke-width="0.9" id="svg_18" points="600.9559936523438,214.6269989013672 878.4822387695312,205.72300720214844 "/>
   <polyline stroke-width="0.9" id="svg_19" points="878.4822387695312,205.72300720214844 1035.491943359375,109.2959976196289 "/>
   <polyline stroke-width="0.9" id="svg_20" points="26.2020263671875,148.88099670410156 28.321990966796875,147.6929931640625 "/>
   <polyline stroke-width="0.9" id="svg_21" points="26.2020263671875,148.88099670410156 11.125,146.95599365234375 "/>
   <polyline stroke-width="0.9" id="svg_22" points="825.4320678710938,207.4250030517578 821.7119750976562,329.1289978027344 "/>
   <polyline stroke-width="0.9" id="svg_23" points="820.8419799804688,357.7569885253906 820.3720092773438,372.97198486328125 "/>
   <polyline stroke-width="0.9" id="svg_24" points="819.6289672851562,397.3320007324219 819.3290405273438,407.1650085449219 "/>
   <polyline stroke-width="0.9" id="svg_25" points="819.3290405273438,407.1650085449219 850.3020629882812,420.2550048828125 "/>
   <polyline stroke-width="0.9" id="svg_26" points="919.8619995117188,449.65301513671875 956.0825805664062,464.96600341796875 "/>
   <polyline stroke-width="0.9" id="svg_27" points="988.9522094726562,478.8550109863281 1035.491943359375,498.5249938964844 "/>
   <polyline stroke-width="0.9" id="svg_28" points="819.3290405273438,407.1650085449219 708.5150756835938,415.7149963378906 "/>
   <polyline stroke-width="0.9" id="svg_29" points="682.8920288085938,417.6919860839844 651.9080200195312,420.0820007324219 "/>
   <polyline stroke-width="0.9" id="svg_30" points="629.2050170898438,421.8340148925781 436.1669921875,436.72698974609375 "/>
   <polyline stroke-width="0.9" id="svg_31" points="427.31195068359375,437.4100036621094 421.75494384765625,437.8380126953125 "/>
   <polyline stroke-width="0.9" id="svg_32" points="413.07000732421875,438.5090026855469 249.19200134277344,451.1520080566406 "/>
   <polyline stroke-width="0.9" id="svg_33" points="236.6320037841797,452.1210021972656 227.70594787597656,452.80999755859375 "/>
   <polyline stroke-width="0.9" id="svg_34" points="205.8309783935547,454.49700927734375 166.79197692871094,457.5090026855469 "/>
   <polyline stroke-width="0.9" id="svg_35" points="11.125,111.22699737548828 283.7340087890625,147.00599670410156 "/>
   <polyline stroke-width="0.9" id="svg_36" points="283.7340087890625,147.00599670410156 283.70404052734375,148.77699279785156 "/>
   <polyline stroke-width="0.9" id="svg_37" points="283.70404052734375,148.77699279785156 11.125,113.26200103759766 "/>
   <polyline stroke-width="0.9" id="svg_38" points="287.23199462890625,108.72799682617188 469.93402099609375,11.087599754333496 "/>
   <polyline stroke-width="0.9" id="svg_39" points="287.23199462890625,108.72799682617188 286.8531799316406,111.31900024414062 "/>
   <polyline stroke-width="0.9" id="svg_40" points="286.8531799316406,111.31900024414062 476.2860107421875,11.087599754333496 "/>
   <polyline stroke-width="0.9" id="svg_41" points="286.8531799316406,111.31900024414062 617.8809814453125,165.927001953125 "/>
   <polyline stroke-width="0.9" id="svg_42" points="617.8809814453125,165.927001953125 620.1339721679688,165.1649932861328 "/>
   <polyline stroke-width="0.9" id="svg_43" points="620.1339721679688,165.1649932861328 620.0009765625,163.11199951171875 "/>
   <polyline stroke-width="0.9" id="svg_44" points="620.0009765625,163.11199951171875 297.67498779296875,108.82499694824219 "/>
   <polyline stroke-width="0.9" id="svg_45" points="297.67498779296875,108.82499694824219 483.8480224609375,11.087599754333496 "/>
   <polyline stroke-width="0.9" id="svg_46" points="478.7819519042969,11.087599754333496 294.0679931640625,108.60199737548828 "/>
   <polyline stroke-width="0.9" id="svg_47" points="294.0679931640625,108.60199737548828 295.12298583984375,108.98799896240234 "/>
   <polyline stroke-width="0.9" id="svg_48" points="295.12298583984375,108.98799896240234 481.9849853515625,11.087599754333496 "/>
   <polyline stroke-width="0.9" id="svg_49" points="297.67498779296875,108.82499694824219 294.4139404296875,110.53700256347656 "/>
   <polyline stroke-width="0.9" id="svg_50" points="294.4139404296875,110.53700256347656 620.1339721679688,165.1649932861328 "/>
   <polyline stroke-width="0.9" id="svg_51" points="617.0419921875,165.4199981689453 617.6549682617188,165.16299438476562 "/>
   <polyline stroke-width="0.9" id="svg_52" points="617.6549682617188,165.16299438476562 293.3660888671875,111.22599792480469 "/>
   <polyline stroke-width="0.9" id="svg_53" points="792.8519897460938,194.8560028076172 964.9221801757812,10.251449584960938 "/>
   <polyline stroke-width="0.9" id="svg_54" points="968.2520141601562,11.087599754333496 793.8319702148438,195.13400268554688 "/>
   <polyline stroke-width="0.9" id="svg_55" points="793.8319702148438,195.13400268554688 794.9829711914062,195.1649932861328 "/>
   <polyline stroke-width="0.9" id="svg_56" points="794.9829711914062,195.1649932861328 971.6721801757812,10.66079044342041 "/>
   <polyline stroke-width="0.9" id="svg_57" points="972.5420532226562,11.087599754333496 795.1050415039062,195.29800415039062 "/>
   <polyline stroke-width="0.9" id="svg_58" points="795.1050415039062,195.29800415039062 793.5640258789062,195.25399780273438 "/>
   <polyline stroke-width="0.9" id="svg_59" points="823.6019897460938,198.2689971923828 825.4320678710938,198.66200256347656 "/>
   <polyline stroke-width="0.9" id="svg_60" points="825.4320678710938,198.66200256347656 1036.72216796875,22.566200256347656 "/>
   <polyline stroke-width="0.9" id="svg_61" points="1035.7919921875,20.25429916381836 823.6019897460938,198.2689971923828 "/>
   <polyline stroke-width="0.9" id="svg_62" points="825.9320678710938,196.9810028076172 1035.202392578125,21.270200729370117 "/>
   <polyline stroke-width="0.9" id="svg_63" points="1035.202392578125,21.270200729370117 1036.241943359375,22.50979995727539 "/>
   <polyline stroke-width="0.9" id="svg_64" points="1036.241943359375,22.50979995727539 826.6520385742188,197.19900512695312 "/>
   <polyline stroke-width="0.9" id="svg_65" points="826.6520385742188,197.19900512695312 825.9320678710938,196.9810028076172 "/>
   <polyline stroke-width="0.9" id="svg_66" points="11.125,122.76799774169922 651.8460083007812,204.677001953125 "/>
   <polyline stroke-width="0.9" id="svg_67" points="670.0160522460938,199.35899353027344 791.3419799804688,196.3000030517578 "/>
   <polyline stroke-width="0.9" id="svg_68" points="791.3419799804688,196.3000030517578 791.3820190429688,197.88600158691406 "/>
   <polyline stroke-width="0.9" id="svg_69" points="791.3820190429688,197.88600158691406 670.1050415039062,200.83700561523438 "/>
   <polyline stroke-width="0.9" id="svg_70" points="670.1050415039062,200.83700561523438 333.38299560546875,157.0279998779297 "/>
   <polyline stroke-width="0.9" id="svg_71" points="333.38299560546875,157.0279998779297 333.29400634765625,154.281005859375 "/>
   <polyline stroke-width="0.9" id="svg_72" points="333.29400634765625,154.281005859375 670.0160522460938,199.35899353027344 "/>
   <ellipse stroke-width="0.9" id="svg_73" cx="88.875088" cy="76.837196" transform="rotate(7.529439926147461 88.87509155273443,76.83719635009761) " ry="10.0964" rx="42.7317"/>
   <ellipse stroke-width="0.9" id="svg_74" cx="88.438077" cy="77.762901" transform="rotate(8.503199577331543 88.43807983398422,77.76289367675786) " ry="9.03487" rx="37.4905"/>
   <ellipse stroke-width="0.9" id="svg_75" cx="88.367093" cy="77.131302" transform="rotate(7.983369827270508 88.36709594726564,77.13130187988281) " ry="5.42364" rx="28.2937"/>
   <ellipse stroke-width="0.9" id="svg_76" cx="90.003079" cy="79.556396" transform="rotate(7.727829933166504 90.00308227539075,79.55639648437497) " ry="3.75935" rx="14.3874"/>
   <ellipse stroke-width="0.9" id="svg_77" cx="690.954068" cy="50.0481" transform="rotate(-5.649040222167969 690.9540405273438,50.04809951782213) " ry="14.6245" rx="44.5035"/>
   <ellipse stroke-width="0.9" id="svg_78" cx="691.3121" cy="50.7187" transform="rotate(-5.278910160064697 691.3120727539062,50.71870040893555) " ry="12.7142" rx="39.3545"/>
   <ellipse stroke-width="0.9" id="svg_79" cx="690.776089" cy="52.104401" transform="rotate(-4.716599941253662 690.7760620117189,52.104400634766165) " ry="9.45185" rx="29.3559"/>
   <ellipse stroke-width="0.9" id="svg_80" cx="690.679105" cy="52.474499" transform="rotate(-4.034669876098633 690.6790771484375,52.474502563475546) " ry="7.9494" rx="26.2738"/>
   <ellipse stroke-width="0.9" id="svg_81" cx="691.211087" cy="54.771198" transform="rotate(-4.868770122528076 691.2110595703124,54.77120208740271) " ry="4.85388" rx="17.1606"/>
   <ellipse stroke-width="0.9" id="svg_82" cx="691.632108" cy="54.9673" transform="rotate(-4.323750019073486 691.632080078125,54.96730041503893) " ry="3.62243" rx="13.7461"/>
   <ellipse stroke-width="0.9" id="svg_83" cx="678.849088" cy="173.487" transform="rotate(-2.2202000617980957 678.8490600585927,173.48699951171753) " ry="4.71824" rx="23.111"/>
   <ellipse stroke-width="0.9" id="svg_84" cx="677.837064" cy="174.035004" transform="rotate(-1.7947900295257568 677.8370361328111,174.03500366210858) " ry="3.40698" rx="16.5986"/>
   <ellipse stroke-width="0.9" id="svg_85" cx="677.490079" cy="175.393005" transform="rotate(-1.570580005645752 677.4900512695297,175.39300537109233) " ry="1.93201" rx="9.48384"/>
   <ellipse stroke-width="0.9" id="svg_86" cx="677.66409" cy="174.382004" transform="rotate(-1.1268800497055054 677.6640625000036,174.38200378417827) " ry="2.79741" rx="14.6857"/>
   <ellipse stroke-width="0.9" id="svg_87" cx="866.142056" cy="42.858101" transform="rotate(-5.445809841156006 866.1420288085935,42.85810089111342) " ry="4.30999" rx="13.3629"/>
   <ellipse stroke-width="0.9" id="svg_88" cx="810.598111" cy="124.135002" transform="rotate(-5.480989933013916 810.5980834960935,124.13500976562456) " ry="2.18742" rx="8.9781"/>
   <ellipse stroke-width="0.9" id="svg_89" cx="687.388089" cy="96.9748" transform="rotate(-5.948019981384277 687.3880615234374,96.9748001098641) " ry="2.9476" rx="10.1378"/>
   <ellipse stroke-width="0.9" id="svg_90" cx="776.468106" cy="171.024002" transform="rotate(-4.148190021514893 776.4680786132808,171.02400207519526) " ry="2.23377" rx="7.03117"/>
   <ellipse stroke-width="0.9" id="svg_91" cx="681.601102" cy="153.604004" transform="rotate(-4.257999897003174 681.6010742187502,153.60400390624912) " ry="1.83458" rx="7.76591"/>
   <ellipse stroke-width="0.9" id="svg_92" cx="675.736111" cy="189.802994" transform="rotate(-3.42576003074646 675.7360839843755,189.80299377441443) " ry="1.22375" rx="5.20888"/>
   <ellipse stroke-width="0.9" id="svg_93" cx="563.425076" cy="133.013" transform="rotate(-0.41066598892211914 563.42504882813,133.0130004882746) " ry="1.80125" rx="8.59036"/>
   <ellipse stroke-width="0.9" id="svg_94" cx="563.401089" cy="132.988007" transform="rotate(0.3852429986000061 563.4010620117211,132.98800659178318) " ry="2.57335" rx="9.15726"/>
   <ellipse stroke-width="0.9" id="svg_95" cx="471.805081" cy="159.753998" transform="rotate(-0.15684400498867035 471.8050842285051,159.75399780273327) " ry="1.9918" rx="7.26428"/>
   <ellipse stroke-width="0.9" id="svg_96" cx="471.725064" cy="159.826996" transform="rotate(-0.20275600254535675 471.7250671386722,159.82699584961165) " ry="1.26385" rx="6.61855"/>
   <ellipse stroke-width="0.9" id="svg_97" cx="337.451077" cy="139.259995" transform="rotate(9.158439636230469 337.4510803222652,139.25999450683562) " ry="2.60567" rx="8.039"/>
   <ellipse stroke-width="0.9" id="svg_98" cx="166.895077" cy="114.248001" transform="rotate(7.485119819641113 166.89508056640614,114.24800109863281) " ry="2.63904" rx="9.52381"/>
   <ellipse stroke-width="0.9" id="svg_99" cx="227.64108" cy="71.695602" transform="rotate(7.630889892578125 227.64108276367185,71.69560241699233) " ry="3.56655" rx="11.2239"/>
   <ellipse stroke-width="0.9" id="svg_100" cx="61.620084" cy="143.421997" transform="rotate(5.636340141296387 61.620082855224446,143.42199707031253) " ry="1.83581" rx="5.47149"/>
   <ellipse stroke-width="0.9" id="svg_101" cx="530.089078" cy="58.949501" transform="rotate(-0.9757959842681885 530.0890502929681,58.949501037597365) " ry="4.31706" rx="12.0015"/>
   <ellipse stroke-width="0.9" id="svg_102" cx="630.906094" cy="113.167" transform="rotate(-75.36849975585938 630.9060668945312,113.16699981689459) " ry="4.68782" rx="9.22786"/>
   <polyline stroke-width="0.9" id="svg_103" points="628.7440185546875,122.13300323486328 624.4600219726562,122.00199890136719 621.2620239257812,119.02300262451172 620.0369873046875,114.87100219726562 620.2509765625,110.51399993896484 621.9829711914062,106.53900146484375 625.3099975585938,103.81700134277344 629.5819702148438,102.97000122070312 633.6220092773438,104.375 "/>
   <polyline stroke-width="0.9" id="svg_104" points="611.9149780273438,112.28099822998047 610.9849853515625,109.83300018310547 611.3770141601562,107.20500183105469 613.1229858398438,105.20700073242188 615.677978515625,104.6719970703125 "/>
   <polyline stroke-width="0.9" id="svg_105" points="611.9149780273438,112.28099822998047 616.2839965820312,113.96399688720703 "/>
   <polyline stroke-width="0.9" id="svg_106" points="616.2839965820312,113.96399688720703 616.426025390625,115.31199645996094 "/>
   <polyline stroke-width="0.9" id="svg_107" points="616.426025390625,115.31199645996094 620.1389770507812,115.68599700927734 "/>
   <polyline stroke-width="0.9" id="svg_108" points="615.677978515625,104.6719970703125 617.3759765625,95.756103515625 "/>
   <polyline stroke-width="0.9" id="svg_109" points="617.3759765625,95.756103515625 619.718994140625,96.20220184326172 "/>
   <polyline stroke-width="0.9" id="svg_110" points="619.718994140625,96.20220184326172 619.31201171875,104.91400146484375 "/>
   <polyline stroke-width="0.9" id="svg_111" points="619.31201171875,104.91400146484375 622.56201171875,105.81999969482422 "/>
   <polyline stroke-width="0.9" id="svg_112" points="621.6170043945312,96.9220962524414 623.0599975585938,105.30899810791016 "/>
   <polyline stroke-width="0.9" id="svg_113" points="619.6640014648438,91.17340087890625 619.1170043945312,96.08760070800781 "/>
   <polyline stroke-width="0.9" id="svg_114" points="619.6640014648438,91.17340087890625 623.5250244140625,91.23049926757812 "/>
   <polyline stroke-width="0.9" id="svg_115" points="623.5250244140625,91.23049926757812 624.926025390625,98.45999908447266 "/>
   <polyline stroke-width="0.9" id="svg_116" points="624.926025390625,98.45999908447266 626.1920166015625,98.214599609375 "/>
   <polyline stroke-width="0.9" id="svg_117" points="626.1920166015625,98.214599609375 626.677001953125,103.33200073242188 "/>
   <polyline stroke-width="0.9" id="svg_118" points="619.6640014648438,91.17340087890625 608.1300048828125,11.087599754333496 "/>
   <polyline stroke-width="0.9" id="svg_119" points="623.5250244140625,91.23049926757812 614.8350219726562,8.764709949493408 "/>
   <polyline stroke-width="0.9" id="svg_120" points="631.0070190429688,155.42300415039062 625.8159790039062,149.50399780273438 625.3150024414062,145.64199829101562 626.5980224609375,141.89700317382812 628.9190063476562,138.70399475097656 632.093994140625,136.38499450683594 635.9290161132812,135.51600646972656 639.791015625,136.26199340820312 "/>
   <polyline stroke-width="0.9" id="svg_121" points="625.3090209960938,145.6820068359375 622.2239990234375,144.4739990234375 620.156982421875,141.96299743652344 "/>
   <polyline stroke-width="0.9" id="svg_122" points="620.156982421875,141.96299743652344 617.4970092773438,140.66299438476562 "/>
   <polyline stroke-width="0.9" id="svg_123" points="620.218994140625,134.52200317382812 621.4359741210938,135.18499755859375 "/>
   <polyline stroke-width="0.9" id="svg_124" points="621.4359741210938,135.18499755859375 623.1900024414062,128.1179962158203 "/>
   <polyline stroke-width="0.9" id="svg_125" points="623.1900024414062,128.1179962158203 630.0339965820312,129.81700134277344 "/>
   <polyline stroke-width="0.9" id="svg_126" points="630.0339965820312,129.81700134277344 629.8809814453125,136.40699768066406 "/>
   <polyline stroke-width="0.9" id="svg_127" points="629.8809814453125,136.40699768066406 631.0070190429688,136.97900390625 "/>
   <polyline stroke-width="0.9" id="svg_128" points="625.1939697265625,135.45199584960938 625.3179931640625,129.69000244140625 "/>
   <polyline stroke-width="0.9" id="svg_129" points="625.3179931640625,129.69000244140625 627.4760131835938,130.2449951171875 "/>
   <polyline stroke-width="0.9" id="svg_130" points="627.4760131835938,130.2449951171875 627.8460083007812,136.28399658203125 "/>
   <polyline stroke-width="0.9" id="svg_131" points="627.8460083007812,136.28399658203125 625.1939697265625,135.45199584960938 "/>
   <polyline stroke-width="0.9" id="svg_132" points="617.4970092773438,140.66299438476562 617.5750122070312,136.9669952392578 620.218994140625,134.52200317382812 "/>
   <polyline stroke-width="0.9" id="svg_133" points="631.0070190429688,155.42300415039062 629.125,153.1179962158203 628.7630004882812,150.16000366210938 630.85302734375,143.9219970703125 634.4660034179688,139.0989990234375 639.791015625,136.26199340820312 "/>
   <polyline stroke-width="0.9" id="svg_134" points="639.791015625,136.26199340820312 642.3939819335938,138.35699462890625 643.3770141601562,142.03399658203125 643.2880249023438,145.66299438476562 642.1719970703125,148.98199462890625 637.5130004882812,154.15899658203125 634.3759765625,155.89300537109375 631.0070190429688,155.42300415039062 "/>
   <polyline stroke-width="0.9" id="svg_135" points="620.0399780273438,157.17999267578125 627.3410034179688,161.38900756835938 "/>
   <polyline stroke-width="0.9" id="svg_136" points="622.990966796875,151.0590057373047 627.8670043945312,152.51199340820312 "/>
   <polyline stroke-width="0.9" id="svg_137" points="620.0399780273438,157.17999267578125 620.6389770507812,153.65699768066406 622.990966796875,151.0590057373047 "/>
   <polyline stroke-width="0.9" id="svg_138" points="627.3410034179688,161.38900756835938 631.3489990234375,168.08099365234375 634.8179931640625,170.01699829101562 638.2130126953125,168.26100158691406 641.2239990234375,160.9770050048828 641.9329833984375,157.0780029296875 641.4569702148438,153.18600463867188 "/>
   <polyline stroke-width="0.9" id="svg_139" points="633.2000122070312,169.39999389648438 635.72802734375,160.35000610351562 637.8159790039062,155.99899291992188 641.4569702148438,153.18600463867188 "/>
   <polyline stroke-width="0.9" id="svg_140" points="627.3410034179688,161.38900756835938 628.2069702148438,157.91299438476562 630.2139892578125,154.77499389648438 "/>
   <polyline stroke-width="0.9" id="svg_141" points="641.4569702148438,153.18600463867188 638.9739990234375,152.88999938964844 "/>
   <polyline stroke-width="0.9" id="svg_142" points="624.1279907226562,169.4499969482422 626.8150024414062,164.39599609375 "/>
   <polyline stroke-width="0.9" id="svg_143" points="626.8150024414062,164.39599609375 627.718017578125,164.39599609375 "/>
   <polyline stroke-width="0.9" id="svg_144" points="627.718017578125,164.39599609375 628.3109741210938,163.7779998779297 "/>
   <polyline stroke-width="0.9" id="svg_145" points="624.1279907226562,169.4499969482422 631.14697265625,174.70399475097656 "/>
   <polyline stroke-width="0.9" id="svg_146" points="631.14697265625,174.70399475097656 632.8729858398438,179.03399658203125 636.875,181.47900390625 "/>
   <polyline stroke-width="0.9" id="svg_147" points="639.1799926757812,166.76499938964844 641.8770141601562,167.26100158691406 644.2639770507812,168.7239990234375 "/>
   <polyline stroke-width="0.9" id="svg_148" points="636.875,181.47900390625 641.8770141601562,175.8520050048828 644.2639770507812,168.7239990234375 "/>
   <polyline stroke-width="0.9" id="svg_149" points="631.14697265625,174.70399475097656 633.4349975585938,172.73199462890625 634.615966796875,169.9810028076172 "/>
   <polyline stroke-width="0.9" id="svg_150" points="679.4840698242188,694.8469848632812 684.0280151367188,325.27899169921875 "/>
   <polyline stroke-width="0.9" id="svg_151" points="709.7960815429688,327.83099365234375 704.4240112304688,696.4639892578125 "/>
   <polyline stroke-width="0.9" id="svg_152" points="679.4840698242188,694.8469848632812 685.3500366210938,697.6010131835938 691.7269897460938,698.4739990234375 698.3729858398438,698.4719848632812 704.4240112304688,696.4639892578125 "/>
   <polyline stroke-width="0.9" id="svg_153" points="739.4080200195312,293.2080078125 962.2725219726562,469.86700439453125 "/>
   <polyline stroke-width="0.9" id="svg_154" points="974.7020874023438,456.1919860839844 757.6630249023438,275.9320068359375 "/>
   <polyline stroke-width="0.9" id="svg_155" points="684.0280151367188,325.27899169921875 685.7689819335938,311.5429992675781 690.4190063476562,298.5719909667969 697.4750366210938,286.6340026855469 706.7250366210938,276.3489990234375 712.3579711914062,272.3110046386719 718.6090698242188,269.3689880371094 725.2660522460938,267.4570007324219 732.1260375976562,266.58099365234375 739.0590209960938,267.0559997558594 745.7030639648438,269.0060119628906 757.6630249023438,275.9320068359375 "/>
   <polyline stroke-width="0.9" id="svg_156" points="709.7960815429688,327.83099365234375 710.2280883789062,320.9200134277344 711.7190551757812,314.15301513671875 717.0499877929688,301.2900085449219 721.1620483398438,295.72601318359375 726.7000122070312,291.5820007324219 733.3960571289062,290.0369873046875 736.7300415039062,291.0559997558594 739.4080200195312,293.2080078125 "/>
   <polyline stroke-width="0.9" id="svg_157" points="974.7020874023438,456.1919860839844 981.2725219726562,463.4840087890625 986.5720825195312,471.739990234375 989.3921508789062,481.1449890136719 990.1624145507812,490.92498779296875 "/>
   <polyline stroke-width="0.9" id="svg_158" points="962.2725219726562,469.86700439453125 966.0825805664062,474.99200439453125 968.1727905273438,481.08099365234375 969.0921020507812,493.8500061035156 "/>
   <polyline stroke-width="0.9" id="svg_159" points="990.1624145507812,490.92498779296875 977.3821411132812,779.3610229492188 "/>
   <polyline stroke-width="0.9" id="svg_160" points="957.8020629882812,777.2990112304688 969.0921020507812,493.8500061035156 "/>
   <polyline stroke-width="0.9" id="svg_161" points="625.9580078125,670.9949951171875 630.4320068359375,327.66900634765625 "/>
   <polyline stroke-width="0.9" id="svg_162" points="652.865966796875,331.2550048828125 649.1950073242188,671.739990234375 "/>
   <polyline stroke-width="0.9" id="svg_163" points="685.3469848632812,296.97100830078125 689.6480102539062,300.1860046386719 "/>
   <polyline stroke-width="0.9" id="svg_164" points="711.1450805664062,316.25299072265625 911.2222290039062,465.7879943847656 "/>
   <polyline stroke-width="0.9" id="svg_165" points="916.7720336914062,447.1570129394531 720.6749877929688,296.25201416015625 "/>
   <polyline stroke-width="0.9" id="svg_166" points="701.5100708007812,281.50299072265625 699.1289672851562,279.6719970703125 "/>
   <polyline stroke-width="0.9" id="svg_167" points="652.865966796875,331.2550048828125 653.1649780273438,323.98199462890625 654.6300659179688,316.8489990234375 657.2639770507812,310.06201171875 660.8369750976562,303.7229919433594 665.6370239257812,298.2560119628906 671.7500610351562,294.31298828125 675.2710571289062,293.4110107421875 678.9080200195312,293.6499938964844 685.3469848632812,296.97100830078125 "/>
   <polyline stroke-width="0.9" id="svg_168" points="911.2222290039062,465.7879943847656 914.3421020507812,470.8290100097656 915.7020874023438,476.82000732421875 917.0320434570312,488.6929931640625 "/>
   <polyline stroke-width="0.9" id="svg_169" points="916.7720336914062,447.1570129394531 925.4021606445312,454.9949951171875 931.9822387695312,464.71600341796875 933.8427124023438,470.22198486328125 934.5520629882812,476.02398681640625 934.6520385742188,487.73199462890625 "/>
   <polyline stroke-width="0.9" id="svg_170" points="917.0320434570312,488.6929931640625 907.3527221679688,756.906005859375 "/>
   <polyline stroke-width="0.9" id="svg_171" points="926.3323364257812,764.5759887695312 934.6520385742188,487.73199462890625 "/>
   <polyline stroke-width="0.9" id="svg_172" points="630.4320068359375,327.66900634765625 632.0750122070312,314.7510070800781 635.885986328125,302.24700927734375 642.4119873046875,290.9549865722656 650.969970703125,281.0989990234375 656.1640014648438,277.1109924316406 662.0020141601562,274.18701171875 668.3049926757812,272.40301513671875 674.8010864257812,271.64300537109375 681.3400268554688,271.9259948730469 687.7230834960938,273.3810119628906 699.1289672851562,279.6719970703125 "/>
   <polyline stroke-width="0.9" id="svg_173" points="625.9580078125,670.9949951171875 631.5159912109375,673.1810302734375 637.5230102539062,673.6749877929688 643.5009765625,673.3569946289062 649.1950073242188,671.739990234375 "/>
   <polyline stroke-width="0.9" id="svg_174" points="216.65599060058594,492.62701416015625 213.7268524169922,332.2650146484375 "/>
   <polyline stroke-width="0.9" id="svg_175" points="225.13600158691406,334.1650085449219 228.56288146972656,492.3659973144531 "/>
   <polyline stroke-width="0.9" id="svg_176" points="228.56288146972656,492.3659973144531 222.62989807128906,493.2950134277344 216.65599060058594,492.62701416015625 "/>
   <polyline stroke-width="0.9" id="svg_177" points="206.39390563964844,488.78900146484375 203.8469696044922,333.56201171875 "/>
   <polyline stroke-width="0.9" id="svg_178" points="235.87498474121094,318.7309875488281 407.3280029296875,403.7569885253906 "/>
   <polyline stroke-width="0.9" id="svg_179" points="248.6040496826172,318.1759948730469 421.14300537109375,405.56298828125 "/>
   <polyline stroke-width="0.9" id="svg_180" points="413.01202392578125,414.4200134277344 413.35198974609375,557.1890258789062 "/>
   <polyline stroke-width="0.9" id="svg_181" points="423.208984375,561.1740112304688 421.49798583984375,416.031005859375 "/>
   <polyline stroke-width="0.9" id="svg_182" points="427.27099609375,416.56500244140625 427.555908203125,562.9310302734375 "/>
   <polyline stroke-width="0.9" id="svg_183" points="437.114990234375,566.7960205078125 436.0359802246094,418.8659973144531 "/>
   <polyline stroke-width="0.9" id="svg_184" points="250.82701110839844,309.0929870605469 425.4000244140625,397.87701416015625 "/>
   <polyline stroke-width="0.9" id="svg_185" points="83.16801452636719,433.6960144042969 79.56297302246094,335.13299560546875 "/>
   <polyline stroke-width="0.9" id="svg_186" points="92.59403991699219,335.76300048828125 95.37705993652344,434.1889953613281 "/>
   <polyline stroke-width="0.9" id="svg_187" points="88.21800231933594,434.5769958496094 85.56101989746094,334.2699890136719 "/>
   <polyline stroke-width="0.9" id="svg_188" points="101.15397644042969,324.60699462890625 204.46302795410156,371.1109924316406 "/>
   <polyline stroke-width="0.9" id="svg_189" points="226.14796447753906,380.87200927734375 229.70701599121094,382.4739990234375 "/>
   <polyline stroke-width="0.9" id="svg_190" points="237.7930145263672,377.6830139160156 225.9600067138672,372.2149963378906 "/>
   <polyline stroke-width="0.9" id="svg_191" points="204.31703186035156,362.2130126953125 110.95201110839844,319.0660095214844 "/>
   <polyline stroke-width="0.9" id="svg_192" points="235.3090057373047,390.5459899902344 237.35997009277344,486.03900146484375 "/>
   <polyline stroke-width="0.9" id="svg_193" points="243.9490203857422,488.7019958496094 241.85997009277344,392.2550048828125 "/>
   <polyline stroke-width="0.9" id="svg_194" points="248.05699157714844,391.43701171875 249.9529571533203,491.1300048828125 "/>
   <polyline stroke-width="0.9" id="svg_195" points="27.547151565551758,408.10101318359375 24.94305419921875,334.67498779296875 "/>
   <polyline stroke-width="0.9" id="svg_196" points="39.9840087890625,327.0419921875 79.90306091308594,344.4179992675781 "/>
   <polyline stroke-width="0.9" id="svg_197" points="92.99900817871094,350.1189880371094 142.7040252685547,371.7550048828125 "/>
   <polyline stroke-width="0.9" id="svg_198" points="144.04808044433594,367.12799072265625 92.84800720214844,344.7650146484375 "/>
   <polyline stroke-width="0.9" id="svg_199" points="79.70600891113281,339.0249938964844 43.260009765625,323.1059875488281 "/>
   <polyline stroke-width="0.9" id="svg_200" points="146.1780242919922,377.260986328125 148.02903747558594,449.92401123046875 "/>
   <polyline stroke-width="0.9" id="svg_201" points="153.30101013183594,452.05499267578125 150.90904235839844,376.8810119628906 "/>
   <polyline stroke-width="0.9" id="svg_202" points="32.19015312194824,408.0199890136719 29.71307373046875,335.7139892578125 "/>
   <polyline stroke-width="0.9" id="svg_203" points="29.71307373046875,335.7139892578125 30.4200439453125,332.0119934082031 32.841033935546875,329.02398681640625 36.17901611328125,327.19500732421875 39.9840087890625,327.0419921875 "/>
   <polyline stroke-width="0.9" id="svg_204" points="24.94305419921875,334.67498779296875 26.4410400390625,328.55999755859375 30.965087890625,324.093994140625 37.015167236328125,322.2460021972656 43.260009765625,323.1059875488281 "/>
   <polyline stroke-width="0.9" id="svg_205" points="79.56297302246094,335.13299560546875 80.08598327636719,329.91900634765625 82.27305603027344,325.1520080566406 85.74998474121094,321.2030029296875 90.30418395996094,318.6210021972656 100.68705749511719,317.11700439453125 105.91917419433594,317.5820007324219 110.95201110839844,319.0660095214844 "/>
   <polyline stroke-width="0.9" id="svg_206" points="92.59403991699219,335.76300048828125 92.81602478027344,332.27301025390625 94.30418395996094,329.0870056152344 96.75102233886719,326.5769958496094 99.83500671386719,324.8800048828125 "/>
   <polyline stroke-width="0.9" id="svg_207" points="85.56101989746094,334.2699890136719 85.92720031738281,329.7799987792969 87.97001647949219,325.72100830078125 91.07704162597656,322.4129943847656 94.99620056152344,320.18701171875 103.79801940917969,318.34600830078125 112.68101501464844,319.864990234375 "/>
   <polyline stroke-width="0.9" id="svg_208" points="108.06108093261719,324.5719909667969 204.41395568847656,368.1369934082031 "/>
   <polyline stroke-width="0.9" id="svg_209" points="226.08396911621094,377.9339904785156 235.5010223388672,382.1919860839844 "/>
   <polyline stroke-width="0.9" id="svg_210" points="108.06108093261719,324.5719909667969 103.91917419433594,324.0050048828125 99.83500671386719,324.8800048828125 "/>
   <polyline stroke-width="0.9" id="svg_211" points="229.70701599121094,382.4739990234375 233.67601013183594,385.6910095214844 235.3090057373047,390.5459899902344 "/>
   <polyline stroke-width="0.9" id="svg_212" points="235.5010223388672,382.1919860839844 240.2570037841797,386.2770080566406 241.55690002441406,389.1199951171875 241.85997009277344,392.2550048828125 "/>
   <polyline stroke-width="0.9" id="svg_213" points="237.7930145263672,377.6830139160156 241.7139434814453,379.9419860839844 244.99400329589844,383.03900146484375 247.14097595214844,387.02099609375 248.05699157714844,391.43701171875 "/>
   <polyline stroke-width="0.9" id="svg_214" points="225.13600158691406,334.1650085449219 226.9219512939453,325.9859924316406 229.28797912597656,322.43701171875 232.43797302246094,319.5899963378906 236.20201110839844,317.74200439453125 240.35301208496094,316.9159851074219 244.58201599121094,316.97601318359375 248.6040496826172,318.1759948730469 "/>
   <polyline stroke-width="0.9" id="svg_215" points="250.82701110839844,309.0929870605469 244.6870574951172,307.45098876953125 238.25099182128906,307.37799072265625 231.9509735107422,308.4830017089844 226.09898376464844,311.10198974609375 220.98194885253906,314.97698974609375 216.84898376464844,319.8890075683594 214.6439666748047,325.7909851074219 213.7268524169922,332.2650146484375 "/>
   <polyline stroke-width="0.9" id="svg_216" points="203.8469696044922,333.56201171875 204.3539276123047,328.3139953613281 205.89707946777344,323.2749938964844 208.5330047607422,318.64898681640625 212.03001403808594,314.6470031738281 216.28297424316406,311.52899169921875 221.16700744628906,309.5 231.63706970214844,308.6340026855469 "/>
   <polyline stroke-width="0.9" id="svg_217" points="206.39390563964844,488.78900146484375 211.4709930419922,489.46600341796875 216.5880584716797,488.8909912109375 "/>
   <polyline stroke-width="0.9" id="svg_218" points="88.21800231933594,434.5769958496094 91.85105895996094,434.989990234375 95.37705993652344,434.1889953613281 "/>
   <polyline stroke-width="0.9" id="svg_219" points="83.16801452636719,433.6960144042969 88.19902038574219,433.8609924316406 "/>
   <polyline stroke-width="0.9" id="svg_220" points="27.547151565551758,408.10101318359375 29.88616943359375,408.6409912109375 32.19015312194824,408.0199890136719 "/>
   <polyline stroke-width="0.9" id="svg_221" points="142.7040252685547,371.7550048828125 145.3099822998047,373.9809875488281 146.1780242919922,377.260986328125 "/>
   <polyline stroke-width="0.9" id="svg_222" points="144.04808044433594,367.12799072265625 149.0010223388672,370.9599914550781 150.49497985839844,373.760009765625 150.90904235839844,376.8810119628906 "/>
   <polyline stroke-width="0.9" id="svg_223" points="407.3280029296875,403.7569885253906 409.876953125,405.6050109863281 411.61798095703125,408.26800537109375 413.01202392578125,414.4200134277344 "/>
   <polyline stroke-width="0.9" id="svg_224" points="418.5809326171875,404.2650146484375 421.15399169921875,409.822998046875 421.49798583984375,416.031005859375 "/>
   <polyline stroke-width="0.9" id="svg_225" points="421.14300537109375,405.56298828125 425.3719482421875,410.4150085449219 427.27099609375,416.56500244140625 "/>
   <polyline stroke-width="0.9" id="svg_226" points="425.4000244140625,397.87701416015625 430.2069091796875,401.7380065917969 433.864013671875,406.7980041503906 435.6240234375,412.6789855957031 436.0359802246094,418.8659973144531 "/>
   <polyline stroke-width="0.9" id="svg_227" points="11.125,407.27398681640625 11.125,785.2349853515625 "/>
   <polyline stroke-width="0.9" id="svg_228" points="977.4321899414062,785.2349853515625 11.125,785.2349853515625 "/>
  </g>
 </g>
</svg>