<?xml version="1.0" standalone="no"?>
<svg viewBox="0 0 1408 792" version="1.1" xmlns="http://www.w3.org/2000/svg" xmlns:xlink="http://www.w3.org/1999/xlink" stroke-linecap="round" stroke-linejoin="round" fill-rule="evenodd" xml:space="preserve" >
<defs >
<clipPath id="clipId0" >
<path d="M0,792 1408,792 1408,0 0,0 z" />
</clipPath>
</defs>
<g clip-path="url(#clipId0)" fill="none" stroke="rgb(0,0,0)" stroke-width="0.1" />
<g clip-path="url(#clipId0)" fill="none" stroke="rgb(0,0,0)" stroke-width="0.25" >
<polyline points="223.576,406.664 262.875,422.552 " />
<polyline points="275.29,427.571 386.22,472.418 " />
<polyline points="408.425,481.395 806.397,642.287 " />
<polyline points="829.479,651.619 859.93,663.93 " />
<polyline points="884.815,673.99 1157.51,784.235 " />
<polyline points="223.576,406.664 217.591,406.827 " />
<polyline points="217.591,406.827 214.763,326.766 " />
<polyline points="214.58,321.603 208.4,146.693 " />
<polyline points="191.203,406.274 207.567,405.462 " />
<polyline points="212.207,405.232 215.61,405.063 " />
<polyline points="206.28,147.881 212.606,322.241 " />
<polyline points="212.819,328.114 215.61,405.063 " />
<polyline points="215.61,405.063 217.591,406.827 " />
<polyline points="208.4,146.693 781.034,213.627 " />
<polyline points="781.034,213.627 1058.56,204.723 " />
<polyline points="1058.56,204.723 1215.57,108.296 " />
<polyline points="206.28,147.881 208.4,146.693 " />
<polyline points="206.28,147.881 191.203,145.956 " />
<polyline points="1005.51,206.425 1001.79,328.129 " />
<polyline points="1000.92,356.757 1000.45,371.972 " />
<polyline points="999.707,396.332 999.407,406.165 " />
<polyline points="999.407,406.165 1030.38,419.255 " />
<polyline points="1099.94,448.653 1136.16,463.966 " />
<polyline points="1169.03,477.855 1215.57,497.525 " />
<polyline points="999.407,406.165 888.593,414.715 " />
<polyline points="862.97,416.692 831.986,419.082 " />
<polyline points="809.283,420.834 616.245,435.727 " />
<polyline points="607.39,436.41 601.833,436.838 " />
<polyline points="593.148,437.509 429.27,450.152 " />
<polyline points="416.71,451.121 407.784,451.81 " />
<polyline points="385.909,453.497 346.87,456.509 " />
<polyline points="191.203,110.227 463.812,146.006 " />
<polyline points="463.812,146.006 463.782,147.777 " />
<polyline points="463.782,147.777 191.203,112.262 " />
<polyline points="467.31,107.728 650.012,10.0876 " />
<polyline points="467.31,107.728 466.931,110.319 " />
<polyline points="466.931,110.319 656.364,10.0876 " />
<polyline points="466.931,110.319 797.959,164.927 " />
<polyline points="797.959,164.927 800.212,164.165 " />
<polyline points="800.212,164.165 800.079,162.112 " />
<polyline points="800.079,162.112 477.753,107.825 " />
<polyline points="477.753,107.825 663.926,10.0876 " />
<polyline points="658.86,10.0876 474.146,107.602 " />
<polyline points="474.146,107.602 475.201,107.988 " />
<polyline points="475.201,107.988 662.063,10.0876 " />
<polyline points="477.753,107.825 474.492,109.537 " />
<polyline points="474.492,109.537 800.212,164.165 " />
<polyline points="797.12,164.42 797.733,164.163 " />
<polyline points="797.733,164.163 473.444,110.226 " />
<polyline points="972.93,193.856 1145,9.25145 " />
<polyline points="1148.33,10.0876 973.91,194.134 " />
<polyline points="973.91,194.134 975.061,194.165 " />
<polyline points="975.061,194.165 1151.75,9.66079 " />
<polyline points="1152.62,10.0876 975.183,194.298 " />
<polyline points="975.183,194.298 973.642,194.254 " />
<polyline points="1003.68,197.269 1005.51,197.662 " />
<polyline points="1005.51,197.662 1216.8,21.5662 " />
<polyline points="1215.87,19.2543 1003.68,197.269 " />
<polyline points="1006.01,195.981 1215.28,20.2702 " />
<polyline points="1215.28,20.2702 1216.32,21.5098 " />
<polyline points="1216.32,21.5098 1006.73,196.199 " />
<polyline points="1006.73,196.199 1006.01,195.981 " />
<polyline points="191.203,121.768 831.924,203.677 " />
<polyline points="850.094,198.359 971.42,195.3 " />
<polyline points="971.42,195.3 971.46,196.886 " />
<polyline points="971.46,196.886 850.183,199.837 " />
<polyline points="850.183,199.837 513.461,156.028 " />
<polyline points="513.461,156.028 513.372,153.281 " />
<polyline points="513.372,153.281 850.094,198.359 " />
<ellipse rx="42.7317" ry="10.0964" transform="translate(268.953 75.8372) rotate(7.52944)" />
<ellipse rx="37.4905" ry="9.03487" transform="translate(268.516 76.7629) rotate(8.5032)" />
<ellipse rx="28.2937" ry="5.42364" transform="translate(268.445 76.1313) rotate(7.98337)" />
<ellipse rx="14.3874" ry="3.75935" transform="translate(270.081 78.5564) rotate(7.72783)" />
<ellipse rx="44.5035" ry="14.6245" transform="translate(871.032 49.0481) rotate(-5.64904)" />
<ellipse rx="39.3545" ry="12.7142" transform="translate(871.39 49.7187) rotate(-5.27891)" />
<ellipse rx="29.3559" ry="9.45185" transform="translate(870.854 51.1044) rotate(-4.7166)" />
<ellipse rx="26.2738" ry="7.9494" transform="translate(870.757 51.4745) rotate(-4.03467)" />
<ellipse rx="17.1606" ry="4.85388" transform="translate(871.289 53.7712) rotate(-4.86877)" />
<ellipse rx="13.7461" ry="3.62243" transform="translate(871.71 53.9673) rotate(-4.32375)" />
<ellipse rx="23.111" ry="4.71824" transform="translate(858.927 172.487) rotate(-2.2202)" />
<ellipse rx="16.5986" ry="3.40698" transform="translate(857.915 173.035) rotate(-1.79479)" />
<ellipse rx="9.48384" ry="1.93201" transform="translate(857.568 174.393) rotate(-1.57058)" />
<ellipse rx="14.6857" ry="2.79741" transform="translate(857.742 173.382) rotate(-1.12688)" />
<ellipse rx="13.3629" ry="4.30999" transform="translate(1046.22 41.8581) rotate(-5.44581)" />
<ellipse rx="8.9781" ry="2.18742" transform="translate(990.676 123.135) rotate(-5.48099)" />
<ellipse rx="10.1378" ry="2.9476" transform="translate(867.466 95.9748) rotate(-5.94802)" />
<ellipse rx="7.03117" ry="2.23377" transform="translate(956.546 170.024) rotate(-4.14819)" />
<ellipse rx="7.76591" ry="1.83458" transform="translate(861.679 152.604) rotate(-4.258)" />
<ellipse rx="5.20888" ry="1.22375" transform="translate(855.814 188.803) rotate(-3.42576)" />
<ellipse rx="8.59036" ry="1.80125" transform="translate(743.503 132.013) rotate(-0.410666)" />
<ellipse rx="9.15726" ry="2.57335" transform="translate(743.479 131.988) rotate(0.385243)" />
<ellipse rx="7.26428" ry="1.9918" transform="translate(651.883 158.754) rotate(-0.156844)" />
<ellipse rx="6.61855" ry="1.26385" transform="translate(651.803 158.827) rotate(-0.202756)" />
<ellipse rx="8.039" ry="2.60567" transform="translate(517.529 138.26) rotate(9.15844)" />
<ellipse rx="9.52381" ry="2.63904" transform="translate(346.973 113.248) rotate(7.48512)" />
<ellipse rx="11.2239" ry="3.56655" transform="translate(407.719 70.6956) rotate(7.63089)" />
<ellipse rx="5.47149" ry="1.83581" transform="translate(241.698 142.422) rotate(5.63634)" />
<ellipse rx="12.0015" ry="4.31706" transform="translate(710.167 57.9495) rotate(-0.975796)" />
<ellipse rx="9.22786" ry="4.68782" transform="translate(810.984 112.167) rotate(-75.3685)" />
<polyline points="808.822,121.133 804.538,121.002 801.34,118.023 800.115,113.871 800.329,109.514 802.061,105.539 805.388,102.817 809.66,101.97 813.7,103.375 " />
<polyline points="791.993,111.281 791.063,108.833 791.455,106.205 793.201,104.207 795.756,103.672 " />
<polyline points="791.993,111.281 796.362,112.964 " />
<polyline points="796.362,112.964 796.504,114.312 " />
<polyline points="796.504,114.312 800.217,114.686 " />
<polyline points="795.756,103.672 797.454,94.7561 " />
<polyline points="797.454,94.7561 799.797,95.2022 " />
<polyline points="799.797,95.2022 799.39,103.914 " />
<polyline points="799.39,103.914 802.64,104.82 " />
<polyline points="801.695,95.9221 803.138,104.309 " />
<polyline points="799.742,90.1734 799.195,95.0876 " />
<polyline points="799.742,90.1734 803.603,90.2305 " />
<polyline points="803.603,90.2305 805.004,97.46 " />
<polyline points="805.004,97.46 806.27,97.2146 " />
<polyline points="806.27,97.2146 806.755,102.332 " />
<polyline points="799.742,90.1734 788.208,10.0876 " />
<polyline points="803.603,90.2305 794.913,7.76471 " />
<polyline points="811.085,154.423 805.894,148.504 805.393,144.642 806.676,140.897 808.997,137.704 812.172,135.385 816.007,134.516 819.869,135.262 " />
<polyline points="805.387,144.682 802.302,143.474 800.235,140.963 " />
<polyline points="800.235,140.963 797.575,139.663 " />
<polyline points="800.297,133.522 801.514,134.185 " />
<polyline points="801.514,134.185 803.268,127.118 " />
<polyline points="803.268,127.118 810.112,128.817 " />
<polyline points="810.112,128.817 809.959,135.407 " />
<polyline points="809.959,135.407 811.085,135.979 " />
<polyline points="805.272,134.452 805.396,128.69 " />
<polyline points="805.396,128.69 807.554,129.245 " />
<polyline points="807.554,129.245 807.924,135.284 " />
<polyline points="807.924,135.284 805.272,134.452 " />
<polyline points="797.575,139.663 797.653,135.967 800.297,133.522 " />
<polyline points="811.085,154.423 809.203,152.118 808.841,149.16 810.931,142.922 814.544,138.099 819.869,135.262 " />
<polyline points="819.869,135.262 822.472,137.357 823.455,141.034 823.366,144.663 822.25,147.982 817.591,153.159 814.454,154.893 811.085,154.423 " />
<polyline points="800.118,156.18 807.419,160.389 " />
<polyline points="803.069,150.059 807.945,151.512 " />
<polyline points="800.118,156.18 800.717,152.657 803.069,150.059 " />
<polyline points="807.419,160.389 811.427,167.081 814.896,169.017 818.291,167.261 821.302,159.977 822.011,156.078 821.535,152.186 " />
<polyline points="813.278,168.4 815.806,159.35 817.894,154.999 821.535,152.186 " />
<polyline points="807.419,160.389 808.285,156.913 810.292,153.775 " />
<polyline points="821.535,152.186 819.052,151.89 " />
<polyline points="804.206,168.45 806.893,163.396 " />
<polyline points="806.893,163.396 807.796,163.396 " />
<polyline points="807.796,163.396 808.389,162.778 " />
<polyline points="804.206,168.45 811.225,173.704 " />
<polyline points="811.225,173.704 812.951,178.034 816.953,180.479 " />
<polyline points="819.258,165.765 821.955,166.261 824.342,167.724 " />
<polyline points="816.953,180.479 821.955,174.852 824.342,167.724 " />
<polyline points="811.225,173.704 813.513,171.732 814.694,168.981 " />
<polyline points="859.562,693.847 864.106,324.279 " />
<polyline points="889.874,326.831 884.502,695.464 " />
<polyline points="859.562,693.847 865.428,696.601 871.805,697.474 878.451,697.472 884.502,695.464 " />
<polyline points="919.486,292.208 1142.35,468.867 " />
<polyline points="1154.78,455.192 937.741,274.932 " />
<polyline points="864.106,324.279 865.847,310.543 870.497,297.572 877.553,285.634 886.803,275.349 892.436,271.311 898.687,268.369 905.344,266.457 912.204,265.581 919.137,266.056 925.781,268.006 937.741,274.932 " />
<polyline points="889.874,326.831 890.306,319.92 891.797,313.153 897.128,300.29 901.24,294.726 906.778,290.582 913.474,289.037 916.808,290.056 919.486,292.208 " />
<polyline points="1154.78,455.192 1161.35,462.484 1166.65,470.74 1169.47,480.145 1170.24,489.925 " />
<polyline points="1142.35,468.867 1146.16,473.992 1148.25,480.081 1149.17,492.85 " />
<polyline points="1170.24,489.925 1157.46,778.361 " />
<polyline points="1137.88,776.299 1149.17,492.85 " />
<polyline points="806.036,669.995 810.51,326.669 " />
<polyline points="832.944,330.255 829.273,670.74 " />
<polyline points="865.425,295.971 869.726,299.186 " />
<polyline points="891.223,315.253 1091.3,464.788 " />
<polyline points="1096.85,446.157 900.753,295.252 " />
<polyline points="881.588,280.503 879.207,278.672 " />
<polyline points="832.944,330.255 833.243,322.982 834.708,315.849 837.342,309.062 840.915,302.723 845.715,297.256 851.828,293.313 855.349,292.411 858.986,292.65 865.425,295.971 " />
<polyline points="1091.3,464.788 1094.42,469.829 1095.78,475.82 1097.11,487.693 " />
<polyline points="1096.85,446.157 1105.48,453.995 1112.06,463.716 1113.92,469.222 1114.63,475.024 1114.73,486.732 " />
<polyline points="1097.11,487.693 1087.43,755.906 " />
<polyline points="1106.41,763.576 1114.73,486.732 " />
<polyline points="810.51,326.669 812.153,313.751 815.964,301.247 822.49,289.955 831.048,280.099 836.242,276.111 842.08,273.187 848.383,271.403 854.879,270.643 861.418,270.926 867.801,272.381 879.207,278.672 " />
<polyline points="806.036,669.995 811.594,672.181 817.601,672.675 823.579,672.357 829.273,670.74 " />
<polyline points="396.734,491.627 393.805,331.265 " />
<polyline points="405.214,333.165 408.641,491.366 " />
<polyline points="408.641,491.366 402.708,492.295 396.734,491.627 " />
<polyline points="386.472,487.789 383.925,332.562 " />
<polyline points="415.953,317.731 587.406,402.757 " />
<polyline points="428.682,317.176 601.221,404.563 " />
<polyline points="593.09,413.42 593.43,556.189 " />
<polyline points="603.287,560.174 601.576,415.031 " />
<polyline points="607.349,415.565 607.634,561.931 " />
<polyline points="617.193,565.796 616.114,417.866 " />
<polyline points="430.905,308.093 605.478,396.877 " />
<polyline points="263.246,432.696 259.641,334.133 " />
<polyline points="272.672,334.763 275.455,433.189 " />
<polyline points="268.296,433.577 265.639,333.27 " />
<polyline points="281.232,323.607 384.541,370.111 " />
<polyline points="406.226,379.872 409.785,381.474 " />
<polyline points="417.871,376.683 406.038,371.215 " />
<polyline points="384.395,361.213 291.03,318.066 " />
<polyline points="415.387,389.546 417.438,485.039 " />
<polyline points="424.027,487.702 421.938,391.255 " />
<polyline points="428.135,390.437 430.031,490.13 " />
<polyline points="207.625,407.101 205.021,333.675 " />
<polyline points="220.062,326.042 259.981,343.418 " />
<polyline points="273.077,349.119 322.782,370.755 " />
<polyline points="324.126,366.128 272.926,343.765 " />
<polyline points="259.784,338.025 223.338,322.106 " />
<polyline points="326.256,376.261 328.107,448.924 " />
<polyline points="333.379,451.055 330.987,375.881 " />
<polyline points="212.268,407.02 209.791,334.714 " />
<polyline points="209.791,334.714 210.498,331.012 212.919,328.024 216.257,326.195 220.062,326.042 " />
<polyline points="205.021,333.675 206.519,327.56 211.043,323.094 217.093,321.246 223.338,322.106 " />
<polyline points="259.641,334.133 260.164,328.919 262.351,324.152 265.828,320.203 270.382,317.621 280.765,316.117 285.997,316.582 291.03,318.066 " />
<polyline points="272.672,334.763 272.894,331.273 274.382,328.087 276.829,325.577 279.913,323.88 " />
<polyline points="265.639,333.27 266.005,328.78 268.048,324.721 271.155,321.413 275.074,319.187 283.876,317.346 292.759,318.865 " />
<polyline points="288.139,323.572 384.492,367.137 " />
<polyline points="406.162,376.934 415.579,381.192 " />
<polyline points="288.139,323.572 283.997,323.005 279.913,323.88 " />
<polyline points="409.785,381.474 413.754,384.691 415.387,389.546 " />
<polyline points="415.579,381.192 420.335,385.277 421.635,388.12 421.938,391.255 " />
<polyline points="417.871,376.683 421.792,378.942 425.072,382.039 427.219,386.021 428.135,390.437 " />
<polyline points="405.214,333.165 407,324.986 409.366,321.437 412.516,318.59 416.28,316.742 420.431,315.916 424.66,315.976 428.682,317.176 " />
<polyline points="430.905,308.093 424.765,306.451 418.329,306.378 412.029,307.483 406.177,310.102 401.06,313.977 396.927,318.889 394.722,324.791 393.805,331.265 " />
<polyline points="383.925,332.562 384.432,327.314 385.975,322.275 388.611,317.649 392.108,313.647 396.361,310.529 401.245,308.5 411.715,307.634 " />
<polyline points="386.472,487.789 391.549,488.466 396.666,487.891 " />
<polyline points="268.296,433.577 271.929,433.99 275.455,433.189 " />
<polyline points="263.246,432.696 268.277,432.861 " />
<polyline points="207.625,407.101 209.964,407.641 212.268,407.02 " />
<polyline points="322.782,370.755 325.388,372.981 326.256,376.261 " />
<polyline points="324.126,366.128 329.079,369.96 330.573,372.76 330.987,375.881 " />
<polyline points="587.406,402.757 589.955,404.605 591.696,407.268 593.09,413.42 " />
<polyline points="598.659,403.265 601.232,408.823 601.576,415.031 " />
<polyline points="601.221,404.563 605.45,409.415 607.349,415.565 " />
<polyline points="605.478,396.877 610.285,400.738 613.942,405.798 615.702,411.679 616.114,417.866 " />
<polyline points="191.203,406.274 191.203,784.235 " />
<polyline points="1157.51,784.235 191.203,784.235 " />
</g>
</svg>
