<?xml version="1.0" encoding="utf-8"?>
<svg width="1600px" height="900px" viewBox="6572 3668 52697 29518" xmlns="http://www.w3.org/2000/svg">
  <title>Export to SVG</title>
  <desc>Generated by CADtoSVG Version 1.0: 15/04/2017 22:02:37</desc>
  <line x1="20405" y1="11412" x2="21205" y2="11548" style="stroke: rgb(192, 192, 192); fill: none; stroke-width: 26;"/>
  <line x1="21205" y1="11548" x2="20359" y2="19739" style="stroke: rgb(192, 192, 192); fill: none; stroke-width: 26;"/>
  <line x1="20359" y1="19739" x2="19464" y2="19685" style="stroke: rgb(192, 192, 192); fill: none; stroke-width: 26;"/>
  <line x1="19464" y1="19685" x2="20405" y2="11412" style="stroke: rgb(192, 192, 192); fill: none; stroke-width: 26;"/>
  <line x1="21205" y1="11548" x2="21951" y2="15030" style="stroke: rgb(192, 192, 192); fill: none; stroke-width: 26;"/>
  <line x1="21951" y1="15030" x2="21378" y2="20634" style="stroke: rgb(192, 192, 192); fill: none; stroke-width: 26;"/>
  <line x1="21378" y1="20634" x2="20359" y2="19739" style="stroke: rgb(192, 192, 192); fill: none; stroke-width: 26;"/>
  <line x1="19464" y1="19685" x2="20786" y2="20592" style="stroke: rgb(192, 192, 192); fill: none; stroke-width: 26;"/>
  <line x1="20786" y1="20592" x2="21378" y2="20634" style="stroke: rgb(192, 192, 192); fill: none; stroke-width: 26;"/>
  <line x1="20443" y1="19411" x2="21386" y2="20356" style="stroke: rgb(192, 192, 192); fill: none; stroke-width: 26;"/>
  <line x1="21386" y1="20356" x2="21927" y2="15042" style="stroke: rgb(192, 192, 192); fill: none; stroke-width: 26;"/>
  <line x1="21927" y1="15042" x2="21210" y2="12037" style="stroke: rgb(192, 192, 192); fill: none; stroke-width: 26;"/>
  <line x1="21210" y1="12037" x2="20443" y2="19411" style="stroke: rgb(192, 192, 192); fill: none; stroke-width: 26;"/>
  <line x1="21165" y1="12470" x2="21821" y2="15049" style="stroke: rgb(192, 192, 192); fill: none; stroke-width: 26;"/>
  <line x1="21821" y1="15049" x2="21927" y2="15042" style="stroke: rgb(192, 192, 192); fill: none; stroke-width: 26;"/>
  <line x1="21821" y1="15049" x2="21287" y2="20257" style="stroke: rgb(192, 192, 192); fill: none; stroke-width: 26;"/>
  <line x1="20220" y1="33306" x2="23319" y2="24176" style="stroke: rgb(192, 192, 192); fill: none; stroke-width: 26;"/>
  <line x1="23319" y1="24176" x2="23762" y2="24158" style="stroke: rgb(192, 192, 192); fill: none; stroke-width: 26;"/>
  <line x1="23319" y1="24176" x2="23742" y2="19160" style="stroke: rgb(192, 192, 192); fill: none; stroke-width: 26;"/>
  <line x1="23742" y1="19160" x2="26662" y2="19739" style="stroke: rgb(192, 192, 192); fill: none; stroke-width: 26;"/>
  <line x1="26662" y1="19739" x2="34996" y2="19481" style="stroke: rgb(192, 192, 192); fill: none; stroke-width: 26;"/>
  <line x1="34996" y1="19481" x2="35642" y2="19748" style="stroke: rgb(192, 192, 192); fill: none; stroke-width: 26;"/>
  <line x1="35642" y1="19748" x2="44032" y2="19484" style="stroke: rgb(192, 192, 192); fill: none; stroke-width: 26;"/>
  <line x1="34917" y1="23555" x2="35625" y2="23494" style="stroke: rgb(192, 192, 192); fill: none; stroke-width: 26;"/>
  <line x1="35625" y1="23494" x2="40543" y2="23718" style="stroke: rgb(192, 192, 192); fill: none; stroke-width: 26;"/>
  <line x1="34917" y1="23555" x2="29470" y2="23316" style="stroke: rgb(192, 192, 192); fill: none; stroke-width: 26;"/>
  <line x1="26452" y1="23184" x2="26662" y2="19739" style="stroke: rgb(192, 192, 192); fill: none; stroke-width: 26;"/>
  <line x1="26452" y1="23184" x2="24794" y2="23214" style="stroke: rgb(192, 192, 192); fill: none; stroke-width: 26;"/>
  <line x1="24794" y1="23214" x2="24797" y2="23435" style="stroke: rgb(192, 192, 192); fill: none; stroke-width: 26;"/>
  <line x1="24797" y1="23435" x2="24466" y2="23439" style="stroke: rgb(192, 192, 192); fill: none; stroke-width: 26;"/>
  <line x1="24466" y1="23439" x2="24459" y2="23658" style="stroke: rgb(192, 192, 192); fill: none; stroke-width: 26;"/>
  <line x1="24459" y1="23658" x2="24112" y2="23676" style="stroke: rgb(192, 192, 192); fill: none; stroke-width: 26;"/>
  <line x1="24112" y1="23676" x2="24103" y2="23919" style="stroke: rgb(192, 192, 192); fill: none; stroke-width: 26;"/>
  <line x1="24103" y1="23919" x2="23760" y2="23919" style="stroke: rgb(192, 192, 192); fill: none; stroke-width: 26;"/>
  <line x1="23760" y1="23919" x2="23759" y2="24158" style="stroke: rgb(192, 192, 192); fill: none; stroke-width: 26;"/>
  <line x1="23760" y1="23919" x2="44593" y2="25231" style="stroke: rgb(192, 192, 192); fill: none; stroke-width: 26;"/>
  <line x1="44593" y1="25231" x2="44610" y2="25546" style="stroke: rgb(192, 192, 192); fill: none; stroke-width: 26;"/>
  <line x1="44610" y1="25546" x2="49205" y2="33306" style="stroke: rgb(192, 192, 192); fill: none; stroke-width: 26;"/>
  <line x1="44593" y1="25231" x2="44553" y2="25123" style="stroke: rgb(192, 192, 192); fill: none; stroke-width: 26;"/>
  <line x1="44553" y1="25123" x2="44553" y2="24835" style="stroke: rgb(192, 192, 192); fill: none; stroke-width: 26;"/>
  <line x1="44553" y1="24835" x2="44512" y2="24766" style="stroke: rgb(192, 192, 192); fill: none; stroke-width: 26;"/>
  <line x1="44512" y1="24766" x2="44500" y2="24443" style="stroke: rgb(192, 192, 192); fill: none; stroke-width: 26;"/>
  <line x1="44500" y1="24443" x2="44453" y2="24391" style="stroke: rgb(192, 192, 192); fill: none; stroke-width: 26;"/>
  <line x1="44453" y1="24391" x2="44448" y2="24124" style="stroke: rgb(192, 192, 192); fill: none; stroke-width: 26;"/>
  <line x1="44448" y1="24124" x2="44438" y2="24059" style="stroke: rgb(192, 192, 192); fill: none; stroke-width: 26;"/>
  <line x1="44438" y1="24059" x2="44222" y2="18645" style="stroke: rgb(192, 192, 192); fill: none; stroke-width: 26;"/>
  <line x1="44222" y1="18645" x2="47886" y2="3701" style="stroke: rgb(192, 192, 192); fill: none; stroke-width: 26;"/>
  <line x1="27207" y1="19646" x2="25167" y2="19198" style="stroke: rgb(192, 192, 192); fill: none; stroke-width: 26;"/>
  <line x1="25167" y1="19198" x2="28899" y2="9516" style="stroke: rgb(192, 192, 192); fill: none; stroke-width: 26;"/>
  <line x1="28899" y1="9516" x2="39906" y2="12048" style="stroke: rgb(192, 192, 192); fill: none; stroke-width: 26;"/>
  <line x1="39906" y1="12048" x2="41945" y2="19311" style="stroke: rgb(192, 192, 192); fill: none; stroke-width: 26;"/>
  <line x1="34996" y1="19481" x2="34917" y2="23555" style="stroke: rgb(192, 192, 192); fill: none; stroke-width: 26;"/>
  <line x1="35625" y1="23494" x2="35642" y2="19748" style="stroke: rgb(192, 192, 192); fill: none; stroke-width: 26;"/>
  <line x1="40552" y1="23798" x2="44148" y2="23895" style="stroke: rgb(192, 192, 192); fill: none; stroke-width: 26;"/>
  <line x1="40552" y1="23798" x2="40523" y2="22452" style="stroke: rgb(192, 192, 192); fill: none; stroke-width: 26;"/>
  <line x1="40523" y1="22452" x2="44067" y2="22510" style="stroke: rgb(192, 192, 192); fill: none; stroke-width: 26;"/>
  <line x1="44232" y1="18895" x2="44178" y2="19127" style="stroke: rgb(192, 192, 192); fill: none; stroke-width: 26;"/>
  <line x1="44178" y1="19127" x2="44353" y2="23850" style="stroke: rgb(192, 192, 192); fill: none; stroke-width: 26;"/>
  <line x1="35423" y1="19589" x2="41120" y2="19396" style="stroke: rgb(192, 192, 192); fill: none; stroke-width: 26;"/>
  <line x1="41120" y1="19396" x2="37819" y2="12972" style="stroke: rgb(192, 192, 192); fill: none; stroke-width: 26;"/>
  <line x1="37819" y1="12972" x2="30775" y2="11542" style="stroke: rgb(192, 192, 192); fill: none; stroke-width: 26;"/>
  <line x1="30775" y1="11542" x2="25958" y2="19248" style="stroke: rgb(192, 192, 192); fill: none; stroke-width: 26;"/>
  <line x1="25958" y1="19248" x2="27444" y2="19576" style="stroke: rgb(192, 192, 192); fill: none; stroke-width: 26;"/>
  <line x1="30394" y1="18772" x2="37326" y2="18362" style="stroke: rgb(192, 192, 192); fill: none; stroke-width: 26;"/>
  <line x1="37326" y1="18362" x2="34779" y2="16261" style="stroke: rgb(192, 192, 192); fill: none; stroke-width: 26;"/>
  <line x1="30394" y1="18772" x2="34292" y2="16363" style="stroke: rgb(192, 192, 192); fill: none; stroke-width: 26;"/>
  <line x1="26710" y1="19777" x2="29681" y2="19690" style="stroke: rgb(192, 192, 192); fill: none; stroke-width: 26;"/>
  <line x1="29681" y1="19690" x2="29470" y2="23316" style="stroke: rgb(192, 192, 192); fill: none; stroke-width: 26;"/>
  <line x1="29472" y1="23282" x2="26489" y2="23168" style="stroke: rgb(192, 192, 192); fill: none; stroke-width: 26;"/>
  <line x1="26489" y1="23168" x2="26490" y2="23181" style="stroke: rgb(192, 192, 192); fill: none; stroke-width: 26;"/>
  <line x1="26490" y1="23181" x2="26453" y2="23181" style="stroke: rgb(192, 192, 192); fill: none; stroke-width: 26;"/>
  <line x1="26489" y1="23168" x2="26710" y2="19777" style="stroke: rgb(192, 192, 192); fill: none; stroke-width: 26;"/>
  <line x1="26845" y1="19969" x2="27474" y2="19960" style="stroke: rgb(192, 192, 192); fill: none; stroke-width: 26;"/>
  <line x1="27474" y1="19960" x2="27295" y2="22999" style="stroke: rgb(192, 192, 192); fill: none; stroke-width: 26;"/>
  <line x1="27295" y1="22999" x2="26633" y2="22979" style="stroke: rgb(192, 192, 192); fill: none; stroke-width: 26;"/>
  <line x1="26633" y1="22979" x2="26845" y2="19969" style="stroke: rgb(192, 192, 192); fill: none; stroke-width: 26;"/>
  <line x1="27809" y1="19937" x2="28470" y2="19924" style="stroke: rgb(192, 192, 192); fill: none; stroke-width: 26;"/>
  <line x1="28470" y1="19924" x2="28306" y2="23031" style="stroke: rgb(192, 192, 192); fill: none; stroke-width: 26;"/>
  <line x1="28306" y1="23031" x2="27647" y2="23009" style="stroke: rgb(192, 192, 192); fill: none; stroke-width: 26;"/>
  <line x1="27647" y1="23009" x2="27809" y2="19937" style="stroke: rgb(192, 192, 192); fill: none; stroke-width: 26;"/>
  <line x1="27606" y1="19751" x2="27401" y2="23203" style="stroke: rgb(192, 192, 192); fill: none; stroke-width: 26;"/>
  <line x1="27637" y1="19750" x2="27454" y2="23205" style="stroke: rgb(192, 192, 192); fill: none; stroke-width: 26;"/>
  <line x1="28431" y1="23242" x2="28620" y2="19721" style="stroke: rgb(192, 192, 192); fill: none; stroke-width: 26;"/>
  <line x1="28714" y1="19719" x2="28532" y2="23246" style="stroke: rgb(192, 192, 192); fill: none; stroke-width: 26;"/>
  <line x1="28666" y1="19720" x2="28483" y2="23244" style="stroke: rgb(192, 192, 192); fill: none; stroke-width: 26;"/>
  <line x1="28830" y1="19912" x2="29510" y2="19897" style="stroke: rgb(192, 192, 192); fill: none; stroke-width: 26;"/>
  <line x1="29510" y1="19897" x2="29369" y2="23078" style="stroke: rgb(192, 192, 192); fill: none; stroke-width: 26;"/>
  <line x1="29369" y1="23078" x2="28673" y2="23052" style="stroke: rgb(192, 192, 192); fill: none; stroke-width: 26;"/>
  <line x1="28673" y1="23052" x2="28830" y2="19912" style="stroke: rgb(192, 192, 192); fill: none; stroke-width: 26;"/>
  <line x1="24794" y1="23214" x2="44438" y2="24059" style="stroke: rgb(192, 192, 192); fill: none; stroke-width: 26;"/>
  <line x1="24797" y1="23435" x2="44453" y2="24391" style="stroke: rgb(192, 192, 192); fill: none; stroke-width: 26;"/>
  <line x1="44500" y1="24443" x2="24466" y2="23439" style="stroke: rgb(192, 192, 192); fill: none; stroke-width: 26;"/>
  <line x1="24459" y1="23658" x2="44512" y2="24766" style="stroke: rgb(192, 192, 192); fill: none; stroke-width: 26;"/>
  <line x1="44553" y1="24835" x2="24112" y2="23676" style="stroke: rgb(192, 192, 192); fill: none; stroke-width: 26;"/>
  <line x1="24103" y1="23919" x2="44553" y2="25123" style="stroke: rgb(192, 192, 192); fill: none; stroke-width: 26;"/>
  <line x1="23762" y1="24158" x2="44610" y2="25546" style="stroke: rgb(192, 192, 192); fill: none; stroke-width: 26;"/>
  <line x1="21748" y1="21231" x2="22158" y2="21234" style="stroke: rgb(192, 192, 192); fill: none; stroke-width: 26;"/>
  <line x1="22158" y1="21234" x2="22518" y2="17214" style="stroke: rgb(192, 192, 192); fill: none; stroke-width: 26;"/>
  <line x1="22518" y1="17214" x2="22147" y2="17185" style="stroke: rgb(192, 192, 192); fill: none; stroke-width: 26;"/>
  <line x1="22147" y1="17185" x2="21748" y2="21231" style="stroke: rgb(192, 192, 192); fill: none; stroke-width: 26;"/>
  <line x1="21748" y1="21231" x2="22133" y2="21441" style="stroke: rgb(192, 192, 192); fill: none; stroke-width: 26;"/>
  <line x1="22133" y1="21441" x2="22478" y2="21462" style="stroke: rgb(192, 192, 192); fill: none; stroke-width: 26;"/>
  <line x1="22478" y1="21462" x2="22158" y2="21234" style="stroke: rgb(192, 192, 192); fill: none; stroke-width: 26;"/>
  <line x1="22478" y1="21462" x2="22792" y2="18221" style="stroke: rgb(192, 192, 192); fill: none; stroke-width: 26;"/>
  <line x1="22792" y1="18221" x2="22518" y2="17214" style="stroke: rgb(192, 192, 192); fill: none; stroke-width: 26;"/>
  <line x1="22544" y1="17437" x2="22771" y2="18243" style="stroke: rgb(192, 192, 192); fill: none; stroke-width: 26;"/>
  <line x1="22771" y1="18243" x2="22465" y2="21320" style="stroke: rgb(192, 192, 192); fill: none; stroke-width: 26;"/>
  <line x1="22465" y1="21320" x2="22203" y2="21083" style="stroke: rgb(192, 192, 192); fill: none; stroke-width: 26;"/>
  <line x1="22203" y1="21083" x2="22544" y2="17437" style="stroke: rgb(192, 192, 192); fill: none; stroke-width: 26;"/>
  <line x1="22528" y1="17605" x2="22707" y2="18249" style="stroke: rgb(192, 192, 192); fill: none; stroke-width: 26;"/>
  <line x1="22707" y1="18249" x2="22771" y2="18249" style="stroke: rgb(192, 192, 192); fill: none; stroke-width: 26;"/>
  <line x1="22707" y1="18249" x2="22404" y2="21264" style="stroke: rgb(192, 192, 192); fill: none; stroke-width: 26;"/>
  <line x1="22460" y1="18330" x2="22604" y2="18683" style="stroke: rgb(192, 192, 192); fill: none; stroke-width: 26;"/>
  <line x1="22604" y1="18683" x2="22374" y2="20983" style="stroke: rgb(192, 192, 192); fill: none; stroke-width: 26;"/>
  <line x1="22374" y1="20983" x2="22226" y2="20835" style="stroke: rgb(192, 192, 192); fill: none; stroke-width: 26;"/>
  <line x1="21014" y1="13923" x2="21634" y2="15874" style="stroke: rgb(192, 192, 192); fill: none; stroke-width: 26;"/>
  <line x1="21634" y1="15874" x2="21313" y2="19034" style="stroke: rgb(192, 192, 192); fill: none; stroke-width: 26;"/>
  <line x1="21313" y1="19034" x2="20593" y2="17974" style="stroke: rgb(192, 192, 192); fill: none; stroke-width: 26;"/>
  <line x1="22525" y1="21667" x2="22786" y2="21664" style="stroke: rgb(192, 192, 192); fill: none; stroke-width: 26;"/>
  <line x1="22786" y1="21664" x2="22986" y2="19034" style="stroke: rgb(192, 192, 192); fill: none; stroke-width: 26;"/>
  <line x1="22986" y1="19034" x2="22761" y2="19027" style="stroke: rgb(192, 192, 192); fill: none; stroke-width: 26;"/>
  <line x1="22761" y1="19027" x2="22525" y2="21667" style="stroke: rgb(192, 192, 192); fill: none; stroke-width: 26;"/>
  <line x1="22786" y1="21664" x2="22935" y2="21784" style="stroke: rgb(192, 192, 192); fill: none; stroke-width: 26;"/>
  <line x1="22935" y1="21784" x2="22730" y2="21784" style="stroke: rgb(192, 192, 192); fill: none; stroke-width: 26;"/>
  <line x1="22730" y1="21784" x2="22525" y2="21667" style="stroke: rgb(192, 192, 192); fill: none; stroke-width: 26;"/>
  <line x1="22935" y1="21784" x2="23169" y2="19542" style="stroke: rgb(192, 192, 192); fill: none; stroke-width: 26;"/>
  <line x1="23169" y1="19542" x2="22986" y2="19034" style="stroke: rgb(192, 192, 192); fill: none; stroke-width: 26;"/>
  <line x1="23004" y1="19172" x2="23147" y2="19549" style="stroke: rgb(192, 192, 192); fill: none; stroke-width: 26;"/>
  <line x1="23147" y1="19549" x2="22920" y2="21668" style="stroke: rgb(192, 192, 192); fill: none; stroke-width: 26;"/>
  <line x1="22920" y1="21668" x2="22821" y2="21573" style="stroke: rgb(192, 192, 192); fill: none; stroke-width: 26;"/>
  <line x1="22821" y1="21573" x2="23004" y2="19172" style="stroke: rgb(192, 192, 192); fill: none; stroke-width: 26;"/>
  <line x1="22996" y1="19267" x2="23102" y2="19556" style="stroke: rgb(192, 192, 192); fill: none; stroke-width: 26;"/>
  <line x1="23102" y1="19556" x2="22893" y2="21641" style="stroke: rgb(192, 192, 192); fill: none; stroke-width: 26;"/>
  <line x1="23102" y1="19556" x2="23147" y2="19549" style="stroke: rgb(192, 192, 192); fill: none; stroke-width: 26;"/>
  <line x1="22888" y1="21910" x2="23105" y2="21912" style="stroke: rgb(192, 192, 192); fill: none; stroke-width: 26;"/>
  <line x1="23105" y1="21912" x2="23264" y2="19976" style="stroke: rgb(192, 192, 192); fill: none; stroke-width: 26;"/>
  <line x1="23264" y1="19976" x2="23124" y2="19972" style="stroke: rgb(192, 192, 192); fill: none; stroke-width: 26;"/>
  <line x1="22888" y1="21910" x2="22902" y2="21784" style="stroke: rgb(192, 192, 192); fill: none; stroke-width: 26;"/>
  <line x1="23264" y1="19976" x2="23351" y2="20287" style="stroke: rgb(192, 192, 192); fill: none; stroke-width: 26;"/>
  <line x1="23351" y1="20287" x2="23180" y2="21978" style="stroke: rgb(192, 192, 192); fill: none; stroke-width: 26;"/>
  <line x1="23180" y1="21978" x2="23105" y2="21912" style="stroke: rgb(192, 192, 192); fill: none; stroke-width: 26;"/>
  <line x1="23180" y1="21978" x2="23016" y2="21978" style="stroke: rgb(192, 192, 192); fill: none; stroke-width: 26;"/>
  <line x1="23016" y1="21978" x2="22888" y2="21910" style="stroke: rgb(192, 192, 192); fill: none; stroke-width: 26;"/>
  <line x1="23091" y1="22040" x2="23217" y2="22039" style="stroke: rgb(192, 192, 192); fill: none; stroke-width: 26;"/>
  <line x1="23217" y1="22039" x2="23282" y2="22089" style="stroke: rgb(192, 192, 192); fill: none; stroke-width: 26;"/>
  <line x1="23282" y1="22089" x2="23167" y2="22089" style="stroke: rgb(192, 192, 192); fill: none; stroke-width: 26;"/>
  <line x1="23167" y1="22089" x2="23091" y2="22040" style="stroke: rgb(192, 192, 192); fill: none; stroke-width: 26;"/>
  <line x1="23091" y1="22040" x2="23098" y2="21978" style="stroke: rgb(192, 192, 192); fill: none; stroke-width: 26;"/>
  <line x1="23217" y1="22039" x2="23357" y2="20478" style="stroke: rgb(192, 192, 192); fill: none; stroke-width: 26;"/>
  <line x1="23357" y1="20478" x2="23412" y2="20688" style="stroke: rgb(192, 192, 192); fill: none; stroke-width: 26;"/>
  <line x1="23412" y1="20688" x2="23282" y2="22089" style="stroke: rgb(192, 192, 192); fill: none; stroke-width: 26;"/>
  <line x1="23357" y1="20478" x2="23332" y2="20478" style="stroke: rgb(192, 192, 192); fill: none; stroke-width: 26;"/>
  <line x1="23270" y1="20065" x2="23335" y2="20281" style="stroke: rgb(192, 192, 192); fill: none; stroke-width: 26;"/>
  <line x1="23335" y1="20281" x2="23175" y2="21895" style="stroke: rgb(192, 192, 192); fill: none; stroke-width: 26;"/>
  <line x1="23175" y1="21895" x2="23128" y2="21845" style="stroke: rgb(192, 192, 192); fill: none; stroke-width: 26;"/>
  <line x1="23128" y1="21845" x2="23270" y2="20065" style="stroke: rgb(192, 192, 192); fill: none; stroke-width: 26;"/>
  <line x1="23263" y1="20153" x2="23310" y2="20285" style="stroke: rgb(192, 192, 192); fill: none; stroke-width: 26;"/>
  <line x1="23310" y1="20285" x2="23334" y2="20287" style="stroke: rgb(192, 192, 192); fill: none; stroke-width: 26;"/>
  <line x1="23310" y1="20285" x2="23151" y2="21870" style="stroke: rgb(192, 192, 192); fill: none; stroke-width: 26;"/>
  <line x1="23742" y1="19160" x2="22824" y2="3701" style="stroke: rgb(192, 192, 192); fill: none; stroke-width: 26;"/>
  <line x1="44032" y1="19484" x2="44191" y2="19479" style="stroke: rgb(192, 192, 192); fill: none; stroke-width: 26;"/>
  <line x1="45076" y1="20925" x2="45300" y2="20671" style="stroke: rgb(192, 192, 192); fill: none; stroke-width: 26;"/>
  <line x1="45300" y1="20671" x2="45408" y2="22621" style="stroke: rgb(192, 192, 192); fill: none; stroke-width: 26;"/>
  <line x1="45408" y1="22621" x2="45167" y2="22656" style="stroke: rgb(192, 192, 192); fill: none; stroke-width: 26;"/>
  <line x1="45167" y1="22656" x2="45076" y2="20925" style="stroke: rgb(192, 192, 192); fill: none; stroke-width: 26;"/>
  <line x1="45300" y1="20671" x2="45512" y2="20682" style="stroke: rgb(192, 192, 192); fill: none; stroke-width: 26;"/>
  <line x1="45512" y1="20682" x2="45579" y2="22626" style="stroke: rgb(192, 192, 192); fill: none; stroke-width: 26;"/>
  <line x1="45579" y1="22626" x2="45408" y2="22621" style="stroke: rgb(192, 192, 192); fill: none; stroke-width: 26;"/>
  <line x1="45167" y1="22656" x2="45579" y2="22626" style="stroke: rgb(192, 192, 192); fill: none; stroke-width: 26;"/>
  <line x1="45217" y1="22585" x2="45368" y2="22549" style="stroke: rgb(192, 192, 192); fill: none; stroke-width: 26;"/>
  <line x1="45368" y1="22549" x2="45282" y2="20781" style="stroke: rgb(192, 192, 192); fill: none; stroke-width: 26;"/>
  <line x1="45282" y1="20781" x2="45116" y2="20968" style="stroke: rgb(192, 192, 192); fill: none; stroke-width: 26;"/>
  <line x1="45116" y1="20968" x2="45217" y2="22585" style="stroke: rgb(192, 192, 192); fill: none; stroke-width: 26;"/>
  <line x1="45249" y1="22578" x2="45156" y2="20979" style="stroke: rgb(192, 192, 192); fill: none; stroke-width: 26;"/>
  <line x1="45156" y1="20979" x2="45285" y2="20839" style="stroke: rgb(192, 192, 192); fill: none; stroke-width: 26;"/>
  <line x1="44721" y1="21350" x2="44872" y2="21148" style="stroke: rgb(192, 192, 192); fill: none; stroke-width: 26;"/>
  <line x1="44872" y1="21148" x2="44958" y2="22722" style="stroke: rgb(192, 192, 192); fill: none; stroke-width: 26;"/>
  <line x1="44958" y1="22722" x2="44806" y2="22736" style="stroke: rgb(192, 192, 192); fill: none; stroke-width: 26;"/>
  <line x1="44806" y1="22734" x2="44721" y2="21350" style="stroke: rgb(192, 192, 192); fill: none; stroke-width: 26;"/>
  <line x1="44872" y1="21148" x2="45022" y2="21155" style="stroke: rgb(192, 192, 192); fill: none; stroke-width: 26;"/>
  <line x1="45022" y1="21155" x2="45087" y2="22719" style="stroke: rgb(192, 192, 192); fill: none; stroke-width: 26;"/>
  <line x1="45087" y1="22719" x2="44958" y2="22722" style="stroke: rgb(192, 192, 192); fill: none; stroke-width: 26;"/>
  <line x1="44474" y1="21587" x2="44580" y2="21471" style="stroke: rgb(192, 192, 192); fill: none; stroke-width: 26;"/>
  <line x1="44580" y1="21471" x2="44649" y2="22784" style="stroke: rgb(192, 192, 192); fill: none; stroke-width: 26;"/>
  <line x1="44649" y1="22784" x2="44771" y2="22784" style="stroke: rgb(192, 192, 192); fill: none; stroke-width: 26;"/>
  <line x1="44771" y1="22784" x2="44702" y2="21478" style="stroke: rgb(192, 192, 192); fill: none; stroke-width: 26;"/>
  <line x1="44702" y1="21478" x2="44580" y2="21471" style="stroke: rgb(192, 192, 192); fill: none; stroke-width: 26;"/>
  <line x1="44474" y1="21587" x2="44541" y2="22808" style="stroke: rgb(192, 192, 192); fill: none; stroke-width: 26;"/>
  <line x1="44541" y1="22808" x2="44649" y2="22784" style="stroke: rgb(192, 192, 192); fill: none; stroke-width: 26;"/>
  <line x1="44541" y1="22808" x2="44771" y2="22784" style="stroke: rgb(192, 192, 192); fill: none; stroke-width: 26;"/>
  <line x1="44806" y1="22734" x2="45088" y2="22722" style="stroke: rgb(192, 192, 192); fill: none; stroke-width: 26;"/>
  <line x1="6579" y1="33306" x2="6579" y2="3701" style="stroke: rgb(192, 192, 192); fill: none; stroke-width: 26;"/>
  <line x1="6579" y1="3701" x2="59212" y2="3701" style="stroke: rgb(192, 192, 192); fill: none; stroke-width: 26;"/>
  <line x1="59212" y1="3701" x2="59212" y2="33306" style="stroke: rgb(192, 192, 192); fill: none; stroke-width: 26;"/>
  <line x1="6579" y1="33306" x2="59212" y2="33306" style="stroke: rgb(192, 192, 192); fill: none; stroke-width: 26;"/>
</svg>