<?xml version="1.0" standalone="no"?>
<svg viewBox="0 0 1408 792" version="1.1" xmlns="http://www.w3.org/2000/svg" xmlns:xlink="http://www.w3.org/1999/xlink" stroke-linecap="round" stroke-linejoin="round" fill-rule="evenodd" xml:space="preserve" >
<defs >
<clipPath id="clipId0" >
<path d="M0,792 1408,792 1408,0 0,0 z" />
</clipPath>
</defs>
<g clip-path="url(#clipId0)" fill="none" stroke="rgb(0,0,0)" stroke-width="0.1" />
<g clip-path="url(#clipId0)" fill="none" stroke="rgb(0,0,0)" stroke-width="0.25" >
<polyline points="226.537,70.3268 257.837,75.6264 " />
<polyline points="257.837,75.6264 224.704,396.257 " />
<polyline points="224.704,396.257 189.677,394.147 " />
<polyline points="189.677,394.147 226.537,70.3268 " />
<polyline points="257.837,75.6264 287.031,211.941 " />
<polyline points="287.031,211.941 264.616,431.273 " />
<polyline points="264.616,431.273 224.704,396.257 " />
<polyline points="189.677,394.147 241.427,429.646 " />
<polyline points="241.427,429.646 264.616,431.273 " />
<polyline points="228.011,383.415 264.941,420.417 " />
<polyline points="264.941,420.417 286.094,212.412 " />
<polyline points="286.094,212.412 258.048,94.762 " />
<polyline points="258.048,94.762 228.011,383.415 " />
<polyline points="256.284,111.711 281.961,212.659 " />
<polyline points="281.961,212.659 286.094,212.412 " />
<polyline points="281.961,212.659 261.063,416.531 " />
<polyline points="267.886,784.235 340.564,569.938 " />
<polyline points="340.564,569.938 357.923,569.223 " />
<polyline points="340.564,569.938 357.142,373.585 " />
<polyline points="357.142,373.585 471.425,396.252 " />
<polyline points="471.425,396.252 797.659,386.165 " />
<polyline points="797.659,386.165 822.947,396.587 " />
<polyline points="822.947,396.587 1151.34,386.289 " />
<polyline points="794.532,545.602 822.25,543.235 " />
<polyline points="822.25,543.235 1014.78,552.012 " />
<polyline points="794.532,545.602 581.335,536.268 " />
<polyline points="463.229,531.096 471.425,396.252 " />
<polyline points="463.229,531.096 398.328,532.288 " />
<polyline points="398.328,532.288 398.423,540.918 " />
<polyline points="398.423,540.918 385.459,541.061 " />
<polyline points="385.459,541.061 385.222,549.672 " />
<polyline points="385.222,549.672 371.64,550.352 " />
<polyline points="371.64,550.352 371.268,559.88 " />
<polyline points="371.268,559.88 357.826,559.87 " />
<polyline points="357.826,559.87 357.82,569.227 " />
<polyline points="357.826,559.87 1173.27,611.222 " />
<polyline points="1173.27,611.222 1173.96,623.571 " />
<polyline points="1173.96,623.571 1218.32,696.691 " />
<polyline points="1173.27,611.222 1171.71,606.977 " />
<polyline points="1171.71,606.977 1171.71,595.724 " />
<polyline points="1171.71,595.724 1170.12,593.01 " />
<polyline points="1170.12,593.01 1169.65,580.391 " />
<polyline points="1169.65,580.391 1167.82,578.337 " />
<polyline points="1167.82,578.337 1167.6,567.889 " />
<polyline points="1167.6,567.889 1167.23,565.338 " />
<polyline points="1167.23,565.338 1158.78,353.442 " />
<polyline points="1158.78,353.442 1218.32,106.623 " />
<polyline points="885.134,7.76471 1218.32,93.0564 " />
<polyline points="492.756,392.609 412.901,375.084 " />
<polyline points="412.901,375.084 554.49,7.76471 " />
<polyline points="609.665,7.76471 989.811,95.2181 " />
<polyline points="989.811,95.2181 1069.62,379.482 " />
<polyline points="797.659,386.165 794.532,545.602 " />
<polyline points="822.25,543.235 822.947,396.587 " />
<polyline points="1015.11,555.147 1155.86,558.949 " />
<polyline points="1015.11,555.147 1013.97,502.43 " />
<polyline points="1013.97,502.43 1152.69,504.715 " />
<polyline points="1159.17,363.208 1157.04,372.29 " />
<polyline points="1157.04,372.29 1163.91,557.159 " />
<polyline points="814.368,390.374 1037.35,382.811 " />
<polyline points="1037.35,382.811 908.143,131.388 " />
<polyline points="908.143,131.388 632.429,75.4023 " />
<polyline points="632.429,75.4023 443.872,377.022 " />
<polyline points="443.872,377.022 502.049,389.859 " />
<polyline points="617.518,358.405 888.824,342.371 " />
<polyline points="888.824,342.371 789.156,260.123 " />
<polyline points="617.518,358.405 770.076,264.12 " />
<polyline points="473.294,397.758 589.614,394.351 " />
<polyline points="589.614,394.351 581.335,536.268 " />
<polyline points="581.413,534.929 464.676,530.476 " />
<polyline points="464.676,530.476 464.702,530.974 " />
<polyline points="464.702,530.974 463.237,530.974 " />
<polyline points="464.676,530.476 473.294,397.758 " />
<polyline points="478.599,405.276 503.199,404.895 " />
<polyline points="503.199,404.895 496.193,523.838 " />
<polyline points="496.193,523.838 470.304,523.074 " />
<polyline points="470.304,523.074 478.599,405.276 " />
<polyline points="516.327,404.002 542.209,403.508 " />
<polyline points="542.209,403.508 535.766,525.113 " />
<polyline points="535.766,525.113 509.986,524.239 " />
<polyline points="509.986,524.239 516.327,404.002 " />
<polyline points="508.391,396.73 500.375,531.838 " />
<polyline points="509.58,396.695 502.424,531.916 " />
<polyline points="540.659,533.375 548.064,395.568 " />
<polyline points="551.758,395.46 544.612,533.526 " />
<polyline points="549.885,395.515 542.704,533.453 " />
<polyline points="556.278,403.018 582.928,402.452 " />
<polyline points="582.928,402.452 577.397,526.941 " />
<polyline points="577.397,526.941 550.146,525.921 " />
<polyline points="550.146,525.921 556.278,403.018 " />
<polyline points="398.328,532.288 1167.23,565.338 " />
<polyline points="398.423,540.918 1167.82,578.337 " />
<polyline points="1169.65,580.391 385.459,541.061 " />
<polyline points="385.222,549.672 1170.12,593.01 " />
<polyline points="1171.71,595.724 371.64,550.352 " />
<polyline points="371.268,559.88 1171.71,606.977 " />
<polyline points="357.923,569.223 1173.96,623.571 " />
<polyline points="279.106,454.644 295.145,454.766 " />
<polyline points="295.145,454.766 309.235,297.408 " />
<polyline points="309.235,297.408 294.712,296.276 " />
<polyline points="294.712,296.276 279.106,454.644 " />
<polyline points="279.106,454.644 294.143,462.87 " />
<polyline points="294.143,462.87 307.662,463.705 " />
<polyline points="307.662,463.705 295.145,454.766 " />
<polyline points="307.662,463.705 319.96,336.842 " />
<polyline points="319.96,336.842 309.235,297.408 " />
<polyline points="310.23,306.14 319.138,337.685 " />
<polyline points="319.138,337.685 307.173,458.122 " />
<polyline points="307.173,458.122 296.881,448.864 " />
<polyline points="296.881,448.864 310.23,306.14 " />
<polyline points="309.613,312.731 316.609,337.947 " />
<polyline points="316.609,337.947 319.138,337.947 " />
<polyline points="316.609,337.947 304.769,455.96 " />
<polyline points="306.959,341.115 312.606,354.931 " />
<polyline points="312.606,354.931 303.574,444.945 " />
<polyline points="303.574,444.945 297.791,439.139 " />
<polyline points="250.366,168.588 274.618,244.985 " />
<polyline points="274.618,244.985 262.063,368.672 " />
<polyline points="262.063,368.672 233.864,327.167 " />
<polyline points="309.505,471.704 319.701,471.592 " />
<polyline points="319.701,471.592 327.561,368.674 " />
<polyline points="327.561,368.674 318.745,368.384 " />
<polyline points="318.745,368.384 309.505,471.704 " />
<polyline points="319.701,471.592 325.537,476.281 " />
<polyline points="325.537,476.281 317.536,476.281 " />
<polyline points="317.536,476.281 309.505,471.704 " />
<polyline points="325.537,476.281 334.714,388.544 " />
<polyline points="334.714,388.544 327.561,368.674 " />
<polyline points="328.236,374.079 333.857,388.824 " />
<polyline points="333.857,388.824 324.978,471.74 " />
<polyline points="324.978,471.74 321.097,468.041 " />
<polyline points="321.097,468.041 328.236,374.079 " />
<polyline points="327.954,377.796 332.089,389.103 " />
<polyline points="332.089,389.103 323.907,470.719 " />
<polyline points="332.089,389.103 333.857,388.824 " />
<polyline points="323.706,481.243 332.224,481.295 " />
<polyline points="332.224,481.295 338.437,405.525 " />
<polyline points="338.437,405.525 332.953,405.379 " />
<polyline points="323.706,481.243 324.242,476.281 " />
<polyline points="338.437,405.525 341.852,417.713 " />
<polyline points="341.852,417.713 335.129,483.898 " />
<polyline points="335.129,483.898 332.224,481.295 " />
<polyline points="335.129,483.898 328.711,483.898 " />
<polyline points="328.711,483.898 323.706,481.243 " />
<polyline points="331.644,486.301 336.581,486.275 " />
<polyline points="336.581,486.275 339.129,488.231 " />
<polyline points="339.129,488.231 334.649,488.231 " />
<polyline points="334.649,488.231 331.644,486.301 " />
<polyline points="331.644,486.301 331.92,483.898 " />
<polyline points="336.581,486.275 342.076,425.194 " />
<polyline points="342.076,425.194 344.218,433.409 " />
<polyline points="344.218,433.409 339.129,488.231 " />
<polyline points="342.076,425.194 341.092,425.194 " />
<polyline points="338.659,409.026 341.211,417.452 " />
<polyline points="341.211,417.452 334.945,480.634 " />
<polyline points="334.945,480.634 333.104,478.682 " />
<polyline points="333.104,478.682 338.659,409.026 " />
<polyline points="338.384,412.476 340.226,417.614 " />
<polyline points="340.226,417.614 341.186,417.709 " />
<polyline points="340.226,417.614 334.025,479.658 " />
<polyline points="357.142,373.585 342.676,7.76471 " />
<polyline points="1151.34,386.289 1157.56,386.058 " />
<polyline points="1192.21,442.679 1200.95,432.745 " />
<polyline points="1200.95,432.745 1205.18,509.064 " />
<polyline points="1205.18,509.064 1195.75,510.433 " />
<polyline points="1195.75,510.433 1192.21,442.679 " />
<polyline points="1200.95,432.745 1209.25,433.181 " />
<polyline points="1209.25,433.181 1211.87,509.277 " />
<polyline points="1211.87,509.277 1205.18,509.064 " />
<polyline points="1195.75,510.433 1211.87,509.277 " />
<polyline points="1197.7,507.669 1203.63,506.253 " />
<polyline points="1203.63,506.253 1200.25,437.033 " />
<polyline points="1200.25,437.033 1193.75,444.347 " />
<polyline points="1193.75,444.347 1197.7,507.669 " />
<polyline points="1198.95,507.37 1195.31,444.803 " />
<polyline points="1195.31,444.803 1200.37,439.307 " />
<polyline points="1178.29,459.296 1184.2,451.387 " />
<polyline points="1184.2,451.387 1187.59,513.022 " />
<polyline points="1187.59,513.022 1181.64,513.564 " />
<polyline points="1181.64,513.493 1178.29,459.296 " />
<polyline points="1184.2,451.387 1190.08,451.67 " />
<polyline points="1190.08,451.67 1192.64,512.896 " />
<polyline points="1192.64,512.896 1187.59,513.022 " />
<polyline points="1168.64,468.605 1172.76,464.066 " />
<polyline points="1172.76,464.066 1175.48,515.424 " />
<polyline points="1175.48,515.424 1180.26,515.424 " />
<polyline points="1180.26,515.424 1177.57,464.339 " />
<polyline points="1177.57,464.339 1172.76,464.066 " />
<polyline points="1168.64,468.605 1171.24,516.398 " />
<polyline points="1171.24,516.398 1175.48,515.424 " />
<polyline points="1171.24,516.398 1180.26,515.424 " />
<polyline points="1181.64,513.493 1192.65,513.032 " />
</g>
</svg>
